<svg width="47" height="50" viewBox="0 0 47 50" fill="none" xmlns="http://www.w3.org/2000/svg">
<path d="M26.6513 11.5923C26.8314 11.5923 26.96 11.4886 26.9858 11.3071C27.6289 7.13174 27.7318 6.92427 32.0794 6.14627C32.2852 6.12033 32.4138 6.0166 32.4138 5.80913C32.4138 5.60166 32.2852 5.49793 32.0794 5.44606C27.7318 4.56432 27.6289 4.40871 26.9858 0.311203C26.96 0.103734 26.8314 0 26.6513 0C26.4713 0 26.3684 0.103734 26.3169 0.311203C25.6481 4.40871 25.6223 4.56432 21.249 5.44606C21.0432 5.49793 20.9146 5.60166 20.9146 5.80913C20.9146 6.0166 21.0432 6.12033 21.249 6.14627C25.6481 6.92427 25.6481 7.13174 26.3169 11.3071C26.3684 11.4886 26.4713 11.5923 26.6513 11.5923ZM38.2534 27.3081C38.5364 27.3081 38.7679 27.1266 38.7937 26.7894C39.7455 20.2023 39.8227 20.2282 46.4598 19.0612C46.7942 19.0093 47 18.8278 47 18.5166C47 18.2054 46.7942 18.0239 46.5112 17.972C39.8227 16.7012 39.7455 16.805 38.7937 10.2438C38.7679 9.90664 38.5364 9.69917 38.2534 9.69917C37.9704 9.69917 37.7646 9.90664 37.7132 10.2178C36.7356 16.779 36.7356 16.7012 30.0213 17.972C29.7384 18.0239 29.5068 18.2054 29.5068 18.5166C29.5068 18.8278 29.7384 19.0093 30.0213 19.0612C36.7614 20.2282 36.8643 20.2023 37.7132 26.8154C37.7646 27.1266 37.9704 27.3081 38.2534 27.3081ZM20.2972 50C28.9923 50 36.0153 45.7988 39.2567 38.5633C39.5911 37.8112 39.514 37.1629 39.1795 36.7739C38.8451 36.4367 38.2534 36.333 37.5588 36.6183C35.6294 37.3444 33.4428 37.8112 30.5359 37.8112C19.3968 37.8112 12.3224 30.9388 12.3224 19.5799C12.3224 16.9087 12.7854 14.1079 13.7373 12.1369C14.0974 11.3589 14.046 10.7106 13.6858 10.2956C13.2999 9.88071 12.6311 9.77697 11.705 10.2178C4.81062 13.5114 0 20.7728 0 29.5643C0 41.027 8.00055 50 20.2972 50ZM20.3229 47.6141C9.41544 47.6141 2.341 39.6006 2.341 29.4346C2.341 22.4585 6.07115 16.4678 11.2677 12.9409C10.4959 14.7044 10.0328 17.4015 10.0328 20.0985C10.0328 32.3911 17.9562 40.1193 30.0985 40.1193C32.6453 40.1193 34.9863 39.7044 36.4269 39.1598C33.3914 44.3724 27.3202 47.6141 20.3229 47.6141Z" fill="black"/>
</svg>
