<svg width="814" height="93" viewBox="0 0 814 93" fill="none" xmlns="http://www.w3.org/2000/svg">
<path d="M765.862 -2.08737e-06L780.496 -1.44767e-06C780.484 0.341856 780.477 0.68521 780.475 1.03C780.375 19.67 794.955 34.58 813.295 34.59L813.307 34.59L813.307 48.6513C787.159 48.6771 766.025 27.9481 765.835 2.00999C765.831 1.33653 765.84 0.666456 765.862 -2.08737e-06Z" fill="#6FA5FF"/>
<path d="M668.942 93C669.006 92.5663 669.064 92.1329 669.115 91.7C671.995 67.43 693.805 49.67 718.315 50.7C741.731 51.6876 761.781 70.5233 763.557 93L748.787 93C746.478 76.7306 731.26 64.4657 714.255 65.37C699.125 66.17 685.575 77.87 683.845 92.89L683.832 93L668.942 93Z" fill="#6FA5FF"/>
<path d="M667.111 -6.40389e-06C666.534 2.12626 666.067 4.28849 665.715 6.47999C662.135 28.79 647.365 43.68 624.925 47.61C599.667 52.0349 579.482 69.5006 571.404 93L556.005 93C564.384 62.7347 589.893 38.9795 620.975 33.57C638.915 30.45 648.205 21.45 651.225 3.41C651.416 2.26931 651.636 1.13233 651.884 -7.06949e-06L667.111 -6.40389e-06Z" fill="#6FA5FF"/>
<path fill-rule="evenodd" clip-rule="evenodd" d="M521.895 63.89C553.408 56.8499 577.444 32.3046 584.907 -9.99716e-06L570.025 -1.06477e-05C563.393 24.7966 539.876 46.9668 513.765 50.62C490.665 53.8556 475.419 72.8396 473.811 93L488.412 93C490.06 81.0092 499.201 69.8801 511.675 66.04C513.747 65.4014 515.898 65.0176 518.051 64.6334C519.337 64.4039 520.624 64.1742 521.895 63.89Z" fill="#6FA5FF"/>
<path d="M407 -3.30325e-05C407.064 0.433637 407.122 0.867017 407.174 1.29997C410.054 25.57 431.864 43.33 456.374 42.3C479.789 41.3124 499.84 22.4767 501.615 -2.12673e-05L486.845 -2.1913e-05C484.536 16.2693 469.319 28.5343 452.314 27.63C437.184 26.83 423.634 15.13 421.904 0.109968L421.891 -3.23816e-05L407 -3.30325e-05Z" fill="#6FA5FF"/>
<path d="M358.862 93L373.496 93C373.484 92.6581 373.477 92.3148 373.475 91.97C373.375 73.33 387.955 58.42 406.295 58.41L406.307 58.41L406.307 44.3487C380.159 44.3229 359.024 65.0519 358.835 90.99C358.831 91.6635 358.84 92.3335 358.862 93Z" fill="#6FA5FF"/>
<path d="M261.942 -1.89716e-05C262.006 0.433651 262.064 0.867031 262.115 1.29998C264.995 25.57 286.805 43.33 311.315 42.3C334.731 41.3124 354.781 22.4767 356.557 -6.56435e-06L341.787 -8.50122e-06C339.478 16.2694 324.26 28.5343 307.255 27.63C292.125 26.83 278.575 15.13 276.845 0.109984L276.832 -1.7019e-05L261.942 -1.89716e-05Z" fill="#6FA5FF"/>
<path d="M260.111 93C259.534 90.8737 259.067 88.7115 258.715 86.52C255.135 64.21 240.365 49.32 217.925 45.39C192.667 40.965 172.482 23.4993 164.404 -3.17621e-05L149.005 -3.37815e-05C157.384 30.2652 182.893 54.0204 213.975 59.43C231.915 62.55 241.205 71.55 244.225 89.59C244.416 90.7307 244.636 91.8676 244.884 93L260.111 93Z" fill="#6FA5FF"/>
<path fill-rule="evenodd" clip-rule="evenodd" d="M114.895 29.11C146.408 36.1501 170.444 60.6953 177.907 93L163.025 93C156.393 68.2034 132.876 46.0331 106.765 42.38C83.6649 39.1443 68.4191 20.1604 66.8111 -4.45599e-05L81.4121 -4.26452e-05C83.0604 11.9907 92.2011 23.1199 104.675 26.96C106.747 27.5985 108.898 27.9823 111.051 28.3665C112.337 28.5961 113.624 28.8257 114.895 29.11Z" fill="#6FA5FF"/>
<path d="M-4.27131e-05 93C0.0642121 92.5663 0.122104 92.1329 0.173541 91.7C3.05355 67.43 24.8635 49.67 49.3735 50.7C72.789 51.6876 92.8396 70.5232 94.6152 93L79.8451 93C77.5363 76.7306 62.3186 64.4657 45.3135 65.37C30.1835 66.17 16.6335 77.87 14.9035 92.89L14.8907 93L-4.27131e-05 93Z" fill="#6FA5FF"/>
</svg>
