<svg width="489" height="94" viewBox="0 0 489 94" fill="none" xmlns="http://www.w3.org/2000/svg">
<path d="M47.7535 93.85L33.1189 93.85C33.1309 93.5081 33.1379 93.1648 33.14 92.82C33.24 74.18 18.66 59.27 0.320006 59.26L0.308524 59.26L0.308523 45.1987C26.4564 45.1729 47.5907 65.9019 47.78 91.84C47.7846 92.5135 47.7756 93.1835 47.7535 93.85Z" fill="#282828"/>
<path d="M144.674 0.85C144.609 1.28367 144.551 1.71705 144.5 2.15C141.62 26.42 119.81 44.18 95.3 43.15C71.8846 42.1624 51.834 23.3267 50.0583 0.850004L64.8284 0.850003C67.1373 17.1194 82.3549 29.3843 99.36 28.48C114.49 27.68 128.04 15.98 129.77 0.960001L129.783 0.85L144.674 0.85Z" fill="#282828"/>
<path d="M146.504 93.85C147.081 91.7237 147.548 89.5615 147.9 87.37C151.48 65.06 166.25 50.17 188.69 46.24C213.948 41.8151 234.133 24.3494 242.211 0.849996L257.61 0.849995C249.231 31.1152 223.722 54.8704 192.64 60.28C174.7 63.4 165.41 72.4 162.39 90.44C162.199 91.5807 161.979 92.7177 161.731 93.85L146.504 93.85Z" fill="#282828"/>
<path d="M356.654 93.85L341.469 93.85C342.202 91.2158 342.826 88.4859 343.34 85.66C346.99 65.62 362.12 50.7 382.19 47.28C408.779 42.7408 429.638 24.8895 437.557 0.849987L452.776 0.849986C445.213 28.2091 427.236 46.8938 399.9 57.9C395.78 59.55 391.29 60.47 386.89 61.18C370.47 63.85 360.09 73.99 357.31 90.43C357.116 91.5773 356.897 92.7175 356.654 93.85Z" fill="#282828"/>
<path fill-rule="evenodd" clip-rule="evenodd" d="M291.72 29.96C260.207 37.0001 236.171 61.5453 228.708 93.85L243.59 93.85C250.222 69.0534 273.739 46.8832 299.85 43.23C322.95 39.9944 338.196 21.0104 339.804 0.849991L325.203 0.849992C323.555 12.8408 314.414 23.9699 301.94 27.81C299.868 28.4485 297.717 28.8324 295.565 29.2166C294.278 29.4461 292.992 29.6758 291.72 29.96Z" fill="#282828"/>
<path d="M488.309 30.4224L488.309 45.3157C465.488 51.1766 445.199 71.1185 438.722 93.85L423.957 93.85C431.717 61.4042 452.436 40.825 484.84 31.24C485.976 30.9064 487.137 30.6477 488.309 30.4224Z" fill="#282828"/>
</svg>
