<svg width="814" height="93" viewBox="0 0 814 93" fill="none" xmlns="http://www.w3.org/2000/svg">
<path d="M47.7535 93L33.1189 93C33.1309 92.6581 33.1379 92.3148 33.14 91.97C33.24 73.33 18.66 58.42 0.320006 58.41L0.308524 58.41L0.308523 44.3487C26.4564 44.3229 47.5907 65.0519 47.78 90.99C47.7846 91.6635 47.7756 92.3335 47.7535 93Z" fill="black"/>
<path d="M144.674 -6.32388e-06C144.609 0.433664 144.551 0.867044 144.5 1.3C141.62 25.57 119.81 43.33 95.3 42.3C71.8846 41.3124 51.834 22.4767 50.0583 -2.18812e-06L64.8284 -2.83374e-06C67.1373 16.2694 82.3549 28.5343 99.36 27.63C114.49 26.83 128.04 15.13 129.77 0.109995L129.783 -5.67299e-06L144.674 -6.32388e-06Z" fill="black"/>
<path d="M146.504 93C147.081 90.8737 147.548 88.7115 147.9 86.52C151.48 64.21 166.25 49.32 188.69 45.39C213.948 40.965 234.133 23.4993 242.211 -1.05874e-05L257.61 -1.12605e-05C249.231 30.2652 223.722 54.0204 192.64 59.43C174.7 62.55 165.41 71.55 162.39 89.59C162.199 90.7307 161.979 91.8677 161.731 93L146.504 93Z" fill="black"/>
<path fill-rule="evenodd" clip-rule="evenodd" d="M291.72 29.11C260.207 36.1501 236.171 60.6953 228.708 93L243.59 93C250.222 68.2034 273.739 46.0332 299.85 42.38C322.95 39.1443 338.196 20.1604 339.804 -1.48533e-05L325.203 -1.42151e-05C323.555 11.9908 314.414 23.1199 301.94 26.96C299.868 27.5985 297.717 27.9823 295.565 28.3666C294.278 28.5961 292.992 28.8258 291.72 29.11Z" fill="black"/>
<path d="M406.615 93C406.551 92.5663 406.493 92.1329 406.442 91.7C403.562 67.43 381.752 49.67 357.242 50.7C333.826 51.6876 313.776 70.5232 312 93L326.77 93C329.079 76.7306 344.297 64.4657 361.302 65.37C376.432 66.17 389.982 77.87 391.712 92.89L391.725 93L406.615 93Z" fill="black"/>
<path d="M454.753 2.08737e-06L440.119 1.44767e-06C440.131 0.341859 440.138 0.685213 440.14 1.03C440.24 19.67 425.66 34.58 407.32 34.59L407.309 34.59L407.309 48.6513C433.456 48.6771 454.591 27.9481 454.78 2.01C454.785 1.33653 454.776 0.66646 454.753 2.08737e-06Z" fill="black"/>
<path d="M551.674 93C551.609 92.5663 551.551 92.133 551.5 91.7C548.62 67.43 526.81 49.67 502.3 50.7C478.885 51.6876 458.834 70.5233 457.058 93L471.828 93C474.137 76.7306 489.355 64.4657 506.36 65.37C521.49 66.17 535.04 77.87 536.77 92.89L536.783 93L551.674 93Z" fill="black"/>
<path d="M553.504 6.40389e-06C554.081 2.12627 554.548 4.2885 554.9 6.48C558.48 28.79 573.25 43.68 595.69 47.61C620.948 52.035 641.133 69.5007 649.211 93L664.61 93C656.231 62.7348 630.722 38.9796 599.64 33.57C581.7 30.45 572.41 21.45 569.39 3.41001C569.199 2.26932 568.979 1.13235 568.731 7.06949e-06L553.504 6.40389e-06Z" fill="black"/>
<path fill-rule="evenodd" clip-rule="evenodd" d="M698.72 63.89C667.207 56.8499 643.171 32.3047 635.708 9.99716e-06L650.59 1.06477e-05C657.222 24.7966 680.739 46.9668 706.85 50.62C729.95 53.8557 745.196 72.8396 746.804 93L732.203 93C730.555 81.0092 721.414 69.8801 708.94 66.04C706.868 65.4015 704.717 65.0177 702.565 64.6334C701.278 64.4039 699.992 64.1742 698.72 63.89Z" fill="black"/>
<path d="M813.615 2.51493e-06C813.551 0.433673 813.493 0.867053 813.442 1.30001C810.562 25.57 788.752 43.33 764.242 42.3C740.826 41.3124 720.776 22.4768 719 6.00856e-06L733.77 6.65418e-06C736.079 16.2694 751.297 28.5343 768.302 27.63C783.432 26.83 796.982 15.13 798.712 0.110002L798.725 1.86403e-06L813.615 2.51493e-06Z" fill="black"/>
</svg>
