<svg width="27" height="39" viewBox="0 0 27 39" fill="none" xmlns="http://www.w3.org/2000/svg">
<path d="M13.2504 38.6C10.3671 38.6 7.94206 38.1083 5.97539 37.125C4.00872 36.125 2.52539 34.7833 1.52539 33.1C0.525391 31.4166 0.0253906 29.5416 0.0253906 27.475C0.0253906 25.5916 0.392057 24.025 1.12539 22.775C1.87539 21.525 2.78372 20.5583 3.85039 19.875C4.93372 19.175 5.95039 18.7333 6.90039 18.55C6.10039 18.3666 5.22539 17.9583 4.27539 17.325C3.34206 16.6916 2.55039 15.7916 1.90039 14.625C1.25039 13.4416 0.925391 11.9416 0.925391 10.125C0.925391 8.22495 1.45039 6.55829 2.50039 5.12495C3.56706 3.69162 5.02539 2.57495 6.87539 1.77495C8.74206 0.974951 10.8671 0.574951 13.2504 0.574951C15.6337 0.574951 17.7504 0.974951 19.6004 1.77495C21.4504 2.57495 22.9087 3.69162 23.9754 5.12495C25.0421 6.55829 25.5754 8.22495 25.5754 10.125C25.5754 11.925 25.2421 13.4166 24.5754 14.6C23.9254 15.7833 23.1337 16.6916 22.2004 17.325C21.2671 17.9583 20.3921 18.3666 19.5754 18.55C20.5421 18.7333 21.5587 19.175 22.6254 19.875C23.6921 20.5583 24.6004 21.525 25.3504 22.775C26.1004 24.025 26.4754 25.5916 26.4754 27.475C26.4754 29.5416 25.9671 31.4166 24.9504 33.1C23.9504 34.7833 22.4671 36.125 20.5004 37.125C18.5504 38.1083 16.1337 38.6 13.2504 38.6ZM13.2504 32.575C14.2504 32.575 15.1421 32.3583 15.9254 31.925C16.7254 31.4916 17.3587 30.8666 17.8254 30.05C18.2921 29.2333 18.5254 28.2416 18.5254 27.075C18.5254 25.9583 18.3004 24.9833 17.8504 24.15C17.4171 23.3 16.8004 22.6416 16.0004 22.175C15.2171 21.7083 14.3004 21.475 13.2504 21.475C12.2004 21.475 11.2754 21.7083 10.4754 22.175C9.67539 22.6416 9.05039 23.3 8.60039 24.15C8.16706 25 7.95039 25.975 7.95039 27.075C7.95039 28.2416 8.18372 29.2333 8.65039 30.05C9.11706 30.8666 9.75039 31.4916 10.5504 31.925C11.3504 32.3583 12.2504 32.575 13.2504 32.575ZM13.2504 15.65C14.7171 15.65 15.8837 15.2333 16.7504 14.4C17.6337 13.55 18.0754 12.4333 18.0754 11.05C18.0754 10.05 17.8587 9.22495 17.4254 8.57495C17.0087 7.90829 16.4337 7.41662 15.7004 7.09995C14.9671 6.78328 14.1504 6.62495 13.2504 6.62495C12.3504 6.62495 11.5337 6.78328 10.8004 7.09995C10.0671 7.41662 9.48372 7.90829 9.05039 8.57495C8.63372 9.22495 8.42539 10.05 8.42539 11.05C8.42539 12.4333 8.85872 13.55 9.72539 14.4C10.6087 15.2333 11.7837 15.65 13.2504 15.65Z" fill="black"/>
</svg>
