<svg width="32" height="32" viewBox="0 0 32 32" fill="none" xmlns="http://www.w3.org/2000/svg">
<path d="M16 4C18.3734 4 20.6935 4.70379 22.6668 6.02236C24.6402 7.34094 26.1783 9.21509 27.0866 11.4078C27.9948 13.6005 28.2325 16.0133 27.7694 18.3411C27.3064 20.6689 26.1635 22.8071 24.4853 24.4853C22.8071 26.1635 20.6689 27.3064 18.3411 27.7694C16.0133 28.2324 13.6005 27.9948 11.4078 27.0866C9.21509 26.1783 7.34095 24.6402 6.02237 22.6668C4.70379 20.6935 4.00001 18.3734 4.00001 16C4.00001 12.8174 5.26429 9.76516 7.51472 7.51472C9.76516 5.26428 12.8174 4 16 4V4ZM16 2C13.2311 2 10.5243 2.82109 8.22202 4.35943C5.91973 5.89777 4.12532 8.08427 3.06569 10.6424C2.00607 13.2006 1.72882 16.0155 2.26901 18.7313C2.80921 21.447 4.14258 23.9416 6.10051 25.8995C8.05845 27.8574 10.553 29.1908 13.2687 29.731C15.9845 30.2712 18.7994 29.9939 21.3576 28.9343C23.9157 27.8747 26.1022 26.0803 27.6406 23.778C29.1789 21.4757 30 18.7689 30 16C30 12.287 28.525 8.72601 25.8995 6.1005C23.274 3.475 19.713 2 16 2V2Z" fill="white"/>
<path d="M12 23C11.8205 23 11.6444 22.9516 11.49 22.86C11.3407 22.7715 11.217 22.6457 11.1311 22.4949C11.0452 22.3441 11 22.1736 11 22V10C11 9.82647 11.0452 9.65593 11.1311 9.50514C11.217 9.35436 11.3407 9.22852 11.49 9.14002C11.642 9.05225 11.8145 9.00604 11.99 9.00604C12.1655 9.00604 12.338 9.05225 12.49 9.14002L23.49 15.14C23.6488 15.2257 23.7814 15.3527 23.8738 15.5077C23.9662 15.6626 24.015 15.8396 24.015 16.02C24.015 16.2004 23.9662 16.3775 23.8738 16.5324C23.7814 16.6873 23.6488 16.8143 23.49 16.9L12.49 22.9C12.3378 22.9743 12.1692 23.0087 12 23V23ZM13 11.68V20.32L20.91 16L13 11.68Z" fill="white"/>
</svg>
