<svg width="69" height="34" viewBox="0 0 69 34" fill="none" xmlns="http://www.w3.org/2000/svg">
<path d="M12.7206 1.983V33H6.25255V8.073C6.07056 8.213 5.67855 8.395 5.07655 8.619C4.48855 8.829 3.78155 9.032 2.95555 9.228C2.12955 9.424 1.27555 9.557 0.393555 9.627V4.503C1.27555 4.391 2.13655 4.202 2.97655 3.936C3.81655 3.656 4.53755 3.341 5.13955 2.991C5.75555 2.641 6.16155 2.305 6.35756 1.983H12.7206Z" fill="black"/>
<path d="M30.0508 33.504C27.5728 33.504 25.5498 32.909 23.9818 31.719C22.4138 30.515 21.2588 28.807 20.5168 26.595C19.7888 24.383 19.4248 21.765 19.4248 18.741C19.4248 15.983 19.6628 13.54 20.1388 11.412C20.6148 9.27 21.3148 7.471 22.2388 6.015C23.1768 4.559 24.3248 3.453 25.6828 2.697C27.0408 1.941 28.6018 1.563 30.3658 1.563C32.2558 1.563 33.8028 1.885 35.0068 2.529C36.2248 3.159 37.1698 3.957 37.8418 4.923C38.5278 5.875 39.0038 6.848 39.2698 7.842C39.5498 8.822 39.6898 9.655 39.6898 10.341C39.6898 10.383 39.6898 10.411 39.6898 10.425C39.6898 10.439 39.6898 10.46 39.6898 10.488H33.6208C33.6208 10.46 33.6208 10.439 33.6208 10.425C33.6208 10.411 33.6208 10.383 33.6208 10.341C33.6208 9.991 33.5718 9.606 33.4738 9.186C33.3898 8.752 33.2288 8.339 32.9908 7.947C32.7668 7.555 32.4378 7.233 32.0038 6.981C31.5698 6.729 31.0168 6.603 30.3448 6.603C29.3508 6.603 28.5178 7.044 27.8458 7.926C27.1738 8.794 26.6698 10.124 26.3338 11.916C25.9978 13.694 25.8298 15.969 25.8298 18.741L24.6328 18.762C24.6748 17.866 24.9828 17.012 25.5568 16.2C26.1308 15.374 26.9568 14.702 28.0348 14.184C29.1268 13.652 30.4498 13.386 32.0038 13.386C33.9218 13.386 35.5248 13.82 36.8128 14.688C38.1148 15.542 39.0878 16.683 39.7318 18.111C40.3758 19.539 40.6978 21.114 40.6978 22.836C40.6978 24.88 40.2988 26.707 39.5008 28.317C38.7168 29.927 37.5338 31.194 35.9518 32.118C34.3698 33.042 32.4028 33.504 30.0508 33.504ZM30.1348 28.443C31.0308 28.443 31.7728 28.247 32.3608 27.855C32.9488 27.463 33.3898 26.882 33.6838 26.112C33.9918 25.342 34.1458 24.397 34.1458 23.277C34.1458 22.185 33.9918 21.254 33.6838 20.484C33.3898 19.7 32.9628 19.098 32.4028 18.678C31.8428 18.258 31.1638 18.048 30.3658 18.048C29.5398 18.048 28.8118 18.244 28.1818 18.636C27.5518 19.028 27.0548 19.595 26.6908 20.337C26.3408 21.065 26.1658 21.961 26.1658 23.025C26.1658 24.089 26.3268 25.027 26.6488 25.839C26.9848 26.651 27.4468 27.288 28.0348 27.75C28.6368 28.212 29.3368 28.443 30.1348 28.443Z" fill="black"/>
<path d="M61.6529 33V25.062C61.6529 24.782 61.6529 24.397 61.6529 23.907C61.6529 23.417 61.6529 22.92 61.6529 22.416C61.6529 21.912 61.6529 21.506 61.6529 21.198C61.6529 19.49 61.3449 18.174 60.7289 17.25C60.1129 16.312 58.9859 15.843 57.3479 15.843C56.2839 15.843 55.3879 16.06 54.6599 16.494C53.9319 16.914 53.3789 17.509 53.0009 18.279C52.6369 19.049 52.4548 19.952 52.4548 20.988L50.5648 19.686C50.5648 17.824 50.9639 16.193 51.7619 14.793C52.5599 13.379 53.6588 12.273 55.0588 11.475C56.4728 10.677 58.1039 10.278 59.9519 10.278C62.6819 10.278 64.7329 11.083 66.1049 12.693C67.4769 14.289 68.1629 16.515 68.1629 19.371C68.1629 20.099 68.1629 20.974 68.1629 21.996C68.1629 23.018 68.1629 24.201 68.1629 25.545V33H61.6529ZM45.9449 33V0.177002H52.4548V33H45.9449Z" fill="black"/>
</svg>
