<svg width="66" height="32" viewBox="0 0 66 32" fill="none" xmlns="http://www.w3.org/2000/svg">
<path d="M12.0856 1.76072V32H5.74428V7.69802C5.56584 7.83451 5.18152 8.01194 4.5913 8.23033C4.01482 8.43506 3.32166 8.63297 2.51183 8.82406C1.70201 9.01514 0.86473 9.14481 0 9.21305V4.21753C0.86473 4.10834 1.70887 3.92408 2.53242 3.66475C3.35598 3.39177 4.06286 3.08467 4.65307 2.74344C5.25701 2.40222 5.65506 2.07464 5.84722 1.76072H12.0856Z" fill="black"/>
<path d="M18.1645 32V26.7997C18.288 26.4995 18.6517 26.0559 19.2557 25.469C19.8596 24.8684 20.594 24.1928 21.4587 23.4421C22.3234 22.6914 23.2293 21.9271 24.1764 21.1491C25.1372 20.3574 26.0225 19.6272 26.8324 18.9584C27.7932 18.1668 28.7265 17.3478 29.6324 16.5016C30.5384 15.6417 31.2864 14.7341 31.8766 13.7786C32.4806 12.8096 32.7825 11.7927 32.7825 10.7281C32.7825 9.39049 32.46 8.31904 31.8149 7.51375C31.1835 6.70847 30.1746 6.30582 28.7883 6.30582C27.6765 6.30582 26.7912 6.5515 26.1323 7.04287C25.4872 7.52058 25.0274 8.19621 24.7529 9.06974C24.4784 9.92962 24.3411 10.9396 24.3411 12.0998H17.9586C17.9586 9.88867 18.3772 7.97782 19.2145 6.36724C20.0655 4.75666 21.3008 3.52143 22.9205 2.66155C24.5539 1.78801 26.5441 1.35125 28.8912 1.35125C31.1697 1.35125 33.0708 1.76754 34.5943 2.60013C36.1316 3.43271 37.2846 4.55875 38.0533 5.97825C38.8219 7.39774 39.2062 9.00149 39.2062 10.7895C39.2062 11.9906 38.9729 13.1167 38.5062 14.1676C38.0533 15.2049 37.4562 16.1672 36.715 17.0544C35.9875 17.9416 35.2051 18.7537 34.3679 19.4907C33.5306 20.2141 32.7414 20.8693 32.0002 21.4562C30.7511 22.4389 29.6668 23.3056 28.7471 24.0563C27.8275 24.807 27.0932 25.4417 26.5441 25.9603C26.0088 26.479 25.6794 26.8748 25.5559 27.1478H39.0209V32H18.1645Z" fill="black"/>
<path d="M59.6175 32V24.261C59.6175 23.9881 59.6175 23.6127 59.6175 23.135C59.6175 22.6573 59.6175 22.1727 59.6175 21.6814C59.6175 21.19 59.6175 20.7942 59.6175 20.4939C59.6175 18.8287 59.3155 17.5457 58.7116 16.6449C58.1076 15.7304 57.0027 15.2732 55.3968 15.2732C54.3536 15.2732 53.4751 15.4848 52.7614 15.9079C52.0477 16.3173 51.5055 16.8974 51.1349 17.6481C50.778 18.3988 50.5996 19.2792 50.5996 20.2892L48.7466 19.0198C48.7466 17.2045 49.1378 15.6144 49.9201 14.2495C50.7025 12.871 51.78 11.7927 53.1526 11.0147C54.5389 10.2367 56.138 9.84773 57.9498 9.84773C60.6263 9.84773 62.6372 10.6325 63.9823 12.2022C65.3274 13.7582 66 15.9283 66 18.7127C66 19.4225 66 20.2755 66 21.2719C66 22.2683 66 23.4216 66 24.7319V32H59.6175ZM44.217 32V0H50.5996V32H44.217Z" fill="black"/>
</svg>
