<svg width="100" height="100" viewBox="0 0 100 100" fill="none" xmlns="http://www.w3.org/2000/svg">
<path d="M65.625 75H34.375V81.25H65.625V75Z" fill="white"/>
<path d="M59.375 87.5H40.625V93.75H59.375V87.5Z" fill="white"/>
<path d="M50.0008 6.25C41.7128 6.25 33.7642 9.5424 27.9037 15.4029C22.0432 21.2634 18.7508 29.212 18.7508 37.5C18.5394 42.0417 19.4094 46.5686 21.2892 50.7084C23.1689 54.8482 26.0047 58.4826 29.5633 61.3125C32.6883 64.2188 34.3758 65.875 34.3758 68.75H40.6258C40.6258 63 37.157 59.7812 33.782 56.6875C30.8613 54.4508 28.5335 51.5321 27.0026 48.187C25.4717 44.8419 24.7843 41.1724 25.0008 37.5C25.0008 30.8696 27.6347 24.5107 32.3231 19.8223C37.0115 15.1339 43.3704 12.5 50.0008 12.5C56.6312 12.5 62.99 15.1339 67.6784 19.8223C72.3669 24.5107 75.0008 30.8696 75.0008 37.5C75.2136 41.1751 74.5215 44.8463 72.985 48.1917C71.4486 51.537 69.1147 54.4542 66.1883 56.6875C62.8445 59.8125 59.3758 62.9375 59.3758 68.75H65.6258C65.6258 65.875 67.282 64.2188 70.4383 61.2813C73.9943 58.4562 76.8288 54.8272 78.7086 50.6928C80.5883 46.5584 81.4596 42.0368 81.2508 37.5C81.2508 33.3962 80.4425 29.3326 78.872 25.5411C77.3016 21.7497 74.9997 18.3047 72.0979 15.4029C69.196 12.5011 65.7511 10.1992 61.9596 8.62876C58.1682 7.05831 54.1046 6.25 50.0008 6.25V6.25Z" fill="white"/>
</svg>
