<svg width="23" height="23" viewBox="0 0 23 23" fill="none" xmlns="http://www.w3.org/2000/svg">
<path d="M11.1498 5.38867C7.97126 5.38867 5.43834 7.97126 5.43834 11.1002C5.43834 14.2787 7.97126 16.8117 11.1498 16.8117C14.2787 16.8117 16.8613 14.2787 16.8613 11.1002C16.8613 7.97126 14.2787 5.38867 11.1498 5.38867ZM11.1498 14.8251C9.11356 14.8251 7.42494 13.1861 7.42494 11.1002C7.42494 9.0639 9.0639 7.42494 11.1498 7.42494C13.1861 7.42494 14.8251 9.0639 14.8251 11.1002C14.8251 13.1861 13.1861 14.8251 11.1498 14.8251ZM18.4009 5.19001C18.4009 4.44503 17.805 3.84905 17.06 3.84905C16.315 3.84905 15.719 4.44503 15.719 5.19001C15.719 5.93499 16.315 6.53097 17.06 6.53097C17.805 6.53097 18.4009 5.93499 18.4009 5.19001ZM22.1755 6.53097C22.0762 4.74302 21.6789 3.15374 20.3876 1.86244C19.0963 0.57115 17.507 0.173828 15.719 0.0744978C13.8814 -0.0248326 8.36858 -0.0248326 6.53097 0.0744978C4.74302 0.173828 3.2034 0.57115 1.86244 1.86244C0.57115 3.15374 0.173828 4.74302 0.0744978 6.53097C-0.0248326 8.36858 -0.0248326 13.8814 0.0744978 15.719C0.173828 17.507 0.57115 19.0466 1.86244 20.3876C3.2034 21.6789 4.74302 22.0762 6.53097 22.1755C8.36858 22.2748 13.8814 22.2748 15.719 22.1755C17.507 22.0762 19.0963 21.6789 20.3876 20.3876C21.6789 19.0466 22.0762 17.507 22.1755 15.719C22.2748 13.8814 22.2748 8.36858 22.1755 6.53097ZM19.7916 17.656C19.4439 18.6493 18.6493 19.3943 17.7056 19.7916C16.2157 20.3876 12.7391 20.2386 11.1498 20.2386C9.51088 20.2386 6.03432 20.3876 4.59403 19.7916C3.60073 19.3943 2.85575 18.6493 2.45843 17.656C1.86244 16.2157 2.01144 12.7391 2.01144 11.1002C2.01144 9.51088 1.86244 6.03432 2.45843 4.54436C2.85575 3.60073 3.60073 2.85575 4.59403 2.45843C6.03432 1.86244 9.51088 2.01144 11.1498 2.01144C12.7391 2.01144 16.2157 1.86244 17.7056 2.45843C18.6493 2.80608 19.3943 3.60073 19.7916 4.54436C20.3876 6.03432 20.2386 9.51088 20.2386 11.1002C20.2386 12.7391 20.3876 16.2157 19.7916 17.656Z" fill="white"/>
</svg>
