<svg width="24" height="20" viewBox="0 0 24 20" fill="none" xmlns="http://www.w3.org/2000/svg">
<path d="M9.04688 0.541922C8.95334 0.377669 8.8165 0.240812 8.65053 0.145528C8.48456 0.0502445 8.29551 0 8.10295 0C7.9104 0 7.72134 0.0502445 7.55537 0.145528C7.38941 0.240812 7.25256 0.377669 7.15902 0.541922L0.103541 13.0326C-0.224435 13.674 0.267529 14.3948 1.00614 14.3948H5.76579V19.1178C5.76579 19.5993 6.17509 20 6.66706 20H9.45619C9.94948 20 10.3588 19.5993 10.3588 19.1191V14.3948H9.04688C8.79025 14.3978 8.54113 14.3104 8.34521 14.1486C8.1493 13.9868 8.01974 13.7615 7.98029 13.514C7.98029 13.3539 7.98029 13.1939 8.06162 13.0326L12 6.06643L9.04688 0.541922Z" fill="black"/>
<path d="M15.0153 0.540785C15.1084 0.376837 15.2442 0.240269 15.409 0.145198C15.5737 0.0501262 15.7612 0 15.9523 0C16.1433 0 16.3308 0.0501262 16.4956 0.145198C16.6603 0.240269 16.7962 0.376837 16.8892 0.540785L23.8972 13.0322C24.2229 13.6736 23.7343 14.3945 23.0006 14.3945H18.3565V19.1178C18.3565 19.5992 17.9486 20 17.4586 20H14.5254C14.2882 19.998 14.0614 19.9045 13.8937 19.7397C13.726 19.575 13.6309 19.3521 13.6288 19.1191V14.3945H14.9332C15.1881 14.3975 15.4356 14.31 15.6302 14.1482C15.8248 13.9864 15.9535 13.7611 15.9926 13.5136C15.9926 13.3535 15.9926 13.1935 15.9105 13.0322L12 6.06692L15.0153 0.540785Z" fill="black"/>
</svg>
