<svg width="470" height="102" viewBox="0 0 470 102" fill="none" xmlns="http://www.w3.org/2000/svg">
<path d="M140.426 5.728H131.745L133.955 3.08991V27.7418H128.447V3.08991L130.729 5.728H121.995V1.45001H140.426V5.728Z" fill="black"/>
<path d="M143.391 19.9345V16.2804H155.939L155.405 17.2073C155.405 17.1122 155.405 17.0231 155.405 16.9399C155.405 16.8448 155.405 16.7557 155.405 16.6725C155.405 15.9952 155.244 15.3475 154.923 14.7296C154.603 14.0998 154.104 13.5888 153.426 13.1967C152.761 12.7926 151.905 12.5906 150.859 12.5906C149.814 12.5906 148.91 12.8164 148.15 13.268C147.401 13.7076 146.825 14.3434 146.421 15.1752C146.029 16.0071 145.833 17.0112 145.833 18.1876C145.833 19.3997 146.023 20.4395 146.403 21.307C146.795 22.1626 147.372 22.8221 148.132 23.2856C148.905 23.749 149.861 23.9808 151.002 23.9808C151.739 23.9808 152.374 23.9154 152.909 23.7847C153.444 23.6421 153.878 23.4638 154.21 23.2499C154.555 23.036 154.817 22.7984 154.995 22.5369C155.173 22.2755 155.28 22.02 155.316 21.7705H160.77C160.699 22.5666 160.425 23.3509 159.95 24.1234C159.475 24.8839 158.815 25.5731 157.972 26.1911C157.128 26.7971 156.1 27.2784 154.888 27.6349C153.688 27.9914 152.315 28.1696 150.77 28.1696C148.679 28.1696 146.855 27.7537 145.298 26.9219C143.741 26.0782 142.535 24.9195 141.68 23.446C140.824 21.9606 140.396 20.2494 140.396 18.3124C140.396 16.3517 140.83 14.6345 141.697 13.161C142.577 11.6756 143.795 10.5229 145.351 9.70297C146.92 8.87114 148.732 8.45522 150.788 8.45522C152.891 8.45522 154.71 8.87708 156.242 9.72079C157.775 10.5526 158.958 11.7231 159.79 13.2323C160.622 14.7296 161.037 16.4765 161.037 18.4728C161.037 18.7699 161.031 19.0551 161.02 19.3284C161.008 19.6018 160.99 19.8038 160.966 19.9345H143.391Z" fill="black"/>
<path d="M176.309 27.7418V20.4158C176.309 19.7147 176.309 19.1086 176.309 18.5976C176.309 18.0748 176.309 17.641 176.309 17.2964C176.309 16.8092 176.279 16.3279 176.22 15.8526C176.172 15.3772 176.053 14.9376 175.863 14.5335C175.685 14.1176 175.406 13.7908 175.025 13.5532C174.645 13.3036 174.128 13.1788 173.475 13.1788C172.868 13.1788 172.346 13.3096 171.906 13.571C171.466 13.8205 171.104 14.1711 170.819 14.6227C170.545 15.0623 170.343 15.5733 170.213 16.1556C170.082 16.726 170.016 17.3261 170.016 17.9559L168.501 16.7082C168.501 15.1039 168.792 13.6839 169.375 12.448C169.957 11.2003 170.783 10.2258 171.852 9.52472C172.934 8.81172 174.211 8.45522 175.685 8.45522C177.265 8.45522 178.495 8.79389 179.375 9.47124C180.266 10.1367 180.89 11.028 181.246 12.145C181.615 13.2501 181.799 14.4741 181.799 15.8169C181.799 16.3279 181.799 17.0171 181.799 17.8846C181.799 18.7521 181.799 19.7919 181.799 21.004V27.7418H176.309ZM164.491 27.7418V8.81172H170.016V27.7418H164.491ZM188.073 27.7418V20.4336C188.073 19.7087 188.073 19.0848 188.073 18.562C188.073 18.0391 188.073 17.6054 188.073 17.2608C188.073 16.7379 188.043 16.2388 187.984 15.7635C187.925 15.2762 187.8 14.8366 187.61 14.4444C187.42 14.0523 187.134 13.7433 186.754 13.5175C186.374 13.2917 185.857 13.1788 185.203 13.1788C184.597 13.1788 184.074 13.3096 183.635 13.571C183.207 13.8205 182.856 14.1651 182.583 14.6048C182.31 15.0445 182.108 15.5436 181.977 16.1021C181.858 16.6606 181.799 17.2429 181.799 17.849L180.284 16.6191C180.284 15.0386 180.569 13.6363 181.139 12.4124C181.722 11.1884 182.541 10.2258 183.599 9.52472C184.669 8.81172 185.946 8.45522 187.431 8.45522C188.976 8.45522 190.194 8.78201 191.086 9.43559C191.989 10.0892 192.63 10.9626 193.011 12.0559C193.403 13.1372 193.599 14.3493 193.599 15.6922C193.599 16.2269 193.599 16.9161 193.599 17.7599C193.599 18.6036 193.599 19.6315 193.599 20.8436V27.7418H188.073Z" fill="black"/>
<path d="M204.155 28.134C202.777 28.134 201.547 27.9141 200.466 27.4745C199.396 27.0348 198.558 26.399 197.952 25.5672C197.346 24.7354 197.043 23.7253 197.043 22.5369C197.043 21.1941 197.412 20.1009 198.148 19.2571C198.885 18.4134 199.86 17.7717 201.072 17.3321C202.296 16.8805 203.621 16.5834 205.047 16.4408C207.126 16.2388 208.558 16.0546 209.342 15.8882C210.139 15.7219 210.537 15.4307 210.537 15.0148C210.537 15.0029 210.537 14.991 210.537 14.9792C210.537 14.278 210.198 13.7255 209.521 13.3214C208.855 12.9174 207.922 12.7154 206.722 12.7154C205.451 12.7154 204.476 12.9471 203.799 13.4106C203.133 13.8621 202.801 14.5573 202.801 15.4961H197.364C197.364 13.975 197.774 12.6916 198.594 11.6459C199.426 10.6002 200.549 9.80992 201.963 9.27517C203.377 8.72854 204.975 8.45522 206.758 8.45522C208.422 8.45522 209.96 8.71071 211.375 9.22169C212.789 9.72079 213.924 10.4754 214.779 11.4855C215.647 12.4955 216.08 13.7789 216.08 15.3357C216.08 15.5852 216.08 15.8348 216.08 16.0843C216.08 16.322 216.08 16.5656 216.08 16.8151V23.5173C216.08 24.0045 216.092 24.4739 216.116 24.9255C216.152 25.3652 216.223 25.7692 216.33 26.1376C216.449 26.5535 216.597 26.8981 216.775 27.1714C216.954 27.4447 217.102 27.6349 217.221 27.7418H211.785C211.701 27.6586 211.571 27.4863 211.392 27.2249C211.226 26.9635 211.083 26.6604 210.965 26.3158C210.822 25.8999 210.715 25.484 210.644 25.0681C210.584 24.6403 210.555 24.1412 210.555 23.5708L211.695 24.3551C211.363 25.1394 210.822 25.8167 210.073 26.3871C209.337 26.9456 208.457 27.3794 207.435 27.6884C206.425 27.9854 205.332 28.134 204.155 28.134ZM205.635 23.9986C206.502 23.9986 207.31 23.8441 208.059 23.5351C208.82 23.2143 209.438 22.7152 209.913 22.0378C210.388 21.3605 210.626 20.4752 210.626 19.3819V17.4747L211.998 18.8115C211.214 19.0967 210.305 19.3344 209.271 19.5245C208.249 19.7028 207.227 19.8454 206.205 19.9523C204.993 20.0712 204.084 20.2791 203.478 20.5762C202.884 20.8614 202.587 21.3486 202.587 22.0378C202.587 22.6914 202.842 23.1846 203.353 23.5173C203.864 23.8382 204.625 23.9986 205.635 23.9986Z" fill="black"/>
<path d="M228.003 28.1696C226.874 28.1696 225.786 28.0389 224.741 27.7775C223.695 27.516 222.756 27.1298 221.924 26.6189C221.104 26.1079 220.451 25.4721 219.964 24.7116C219.488 23.9392 219.251 23.042 219.251 22.02C219.251 21.9725 219.251 21.919 219.251 21.8596C219.251 21.7883 219.251 21.7348 219.251 21.6992H224.741C224.741 21.7348 224.741 21.7764 224.741 21.8239C224.741 21.8596 224.741 21.9012 224.741 21.9487C224.741 22.6379 225.044 23.143 225.65 23.4638C226.268 23.7847 227.1 23.9451 228.145 23.9451C228.692 23.9451 229.215 23.8916 229.714 23.7847C230.225 23.6659 230.641 23.4817 230.962 23.2321C231.294 22.9707 231.461 22.6439 231.461 22.2517C231.461 21.6219 231.11 21.1763 230.409 20.9149C229.72 20.6534 228.609 20.392 227.076 20.1306C226.208 19.988 225.329 19.786 224.438 19.5245C223.546 19.2631 222.727 18.9185 221.978 18.4907C221.229 18.051 220.629 17.4984 220.178 16.833C219.726 16.1556 219.5 15.3357 219.5 14.3731C219.5 13.0897 219.886 12.0083 220.659 11.129C221.443 10.2496 222.483 9.58413 223.778 9.13257C225.073 8.681 226.499 8.45522 228.056 8.45522C229.542 8.45522 230.926 8.70477 232.209 9.20387C233.493 9.69108 234.533 10.3981 235.329 11.325C236.125 12.2401 236.523 13.3452 236.523 14.6405C236.523 14.6642 236.523 14.6999 236.523 14.7474C236.523 14.795 236.523 14.8425 236.523 14.89H231.086C231.086 14.8425 231.086 14.8009 231.086 14.7653C231.086 14.7296 231.086 14.6999 231.086 14.6761C231.086 14.2008 230.932 13.8146 230.623 13.5175C230.326 13.2204 229.946 13.0006 229.482 12.858C229.019 12.7035 228.537 12.6263 228.038 12.6263C227.587 12.6263 227.117 12.6797 226.63 12.7867C226.155 12.8818 225.751 13.0481 225.418 13.2858C225.085 13.5116 224.919 13.8324 224.919 14.2483C224.919 14.6524 225.097 14.9851 225.454 15.2465C225.81 15.4961 226.309 15.704 226.951 15.8704C227.593 16.0249 228.335 16.1734 229.179 16.316C229.975 16.4467 230.813 16.6309 231.692 16.8686C232.584 17.0944 233.416 17.4212 234.188 17.849C234.972 18.2649 235.602 18.8175 236.077 19.5067C236.565 20.184 236.808 21.0456 236.808 22.0913C236.808 23.1727 236.559 24.0996 236.06 24.872C235.561 25.6444 234.883 26.2742 234.028 26.7615C233.184 27.2368 232.239 27.5873 231.193 27.8131C230.16 28.0508 229.096 28.1696 228.003 28.1696Z" fill="black"/>
<path d="M251.385 19.9345V16.2804H263.934L263.399 17.2073C263.399 17.1122 263.399 17.0231 263.399 16.9399C263.399 16.8448 263.399 16.7557 263.399 16.6725C263.399 15.9952 263.239 15.3475 262.918 14.7296C262.597 14.0998 262.098 13.5888 261.42 13.1967C260.755 12.7926 259.899 12.5906 258.854 12.5906C257.808 12.5906 256.905 12.8164 256.144 13.268C255.396 13.7076 254.819 14.3434 254.415 15.1752C254.023 16.0071 253.827 17.0112 253.827 18.1876C253.827 19.3997 254.017 20.4395 254.397 21.307C254.789 22.1626 255.366 22.8221 256.126 23.2856C256.899 23.749 257.855 23.9808 258.996 23.9808C259.733 23.9808 260.369 23.9154 260.903 23.7847C261.438 23.6421 261.872 23.4638 262.205 23.2499C262.549 23.036 262.811 22.7984 262.989 22.5369C263.167 22.2755 263.274 22.02 263.31 21.7705H268.764C268.693 22.5666 268.42 23.3509 267.944 24.1234C267.469 24.8839 266.809 25.5731 265.966 26.1911C265.122 26.7971 264.094 27.2784 262.882 27.6349C261.682 27.9914 260.309 28.1696 258.764 28.1696C256.673 28.1696 254.849 27.7537 253.292 26.9219C251.735 26.0782 250.529 24.9195 249.674 23.446C248.818 21.9606 248.39 20.2494 248.39 18.3124C248.39 16.3517 248.824 14.6345 249.692 13.161C250.571 11.6756 251.789 10.5229 253.346 9.70297C254.914 8.87114 256.726 8.45522 258.782 8.45522C260.886 8.45522 262.704 8.87708 264.237 9.72079C265.77 10.5526 266.952 11.7231 267.784 13.2323C268.616 14.7296 269.032 16.4765 269.032 18.4728C269.032 18.7699 269.026 19.0551 269.014 19.3284C269.002 19.6018 268.984 19.8038 268.96 19.9345H251.385Z" fill="black"/>
<path d="M284.303 27.7418V20.4158C284.303 19.7147 284.303 19.1086 284.303 18.5976C284.303 18.0748 284.303 17.641 284.303 17.2964C284.303 16.8092 284.273 16.3279 284.214 15.8526C284.166 15.3772 284.047 14.9376 283.857 14.5335C283.679 14.1176 283.4 13.7908 283.019 13.5532C282.639 13.3036 282.122 13.1788 281.469 13.1788C280.863 13.1788 280.34 13.3096 279.9 13.571C279.46 13.8205 279.098 14.1711 278.813 14.6227C278.539 15.0623 278.337 15.5733 278.207 16.1556C278.076 16.726 278.011 17.3261 278.011 17.9559L276.496 16.7082C276.496 15.1039 276.787 13.6839 277.369 12.448C277.951 11.2003 278.777 10.2258 279.847 9.52472C280.928 8.81172 282.205 8.45522 283.679 8.45522C285.259 8.45522 286.489 8.79389 287.369 9.47124C288.26 10.1367 288.884 11.028 289.24 12.145C289.609 13.2501 289.793 14.4741 289.793 15.8169C289.793 16.3279 289.793 17.0171 289.793 17.8846C289.793 18.7521 289.793 19.7919 289.793 21.004V27.7418H284.303ZM272.485 27.7418V8.81172H278.011V27.7418H272.485ZM296.067 27.7418V20.4336C296.067 19.7087 296.067 19.0848 296.067 18.562C296.067 18.0391 296.067 17.6054 296.067 17.2608C296.067 16.7379 296.038 16.2388 295.978 15.7635C295.919 15.2762 295.794 14.8366 295.604 14.4444C295.414 14.0523 295.129 13.7433 294.748 13.5175C294.368 13.2917 293.851 13.1788 293.198 13.1788C292.591 13.1788 292.069 13.3096 291.629 13.571C291.201 13.8205 290.851 14.1651 290.577 14.6048C290.304 15.0445 290.102 15.5436 289.971 16.1021C289.852 16.6606 289.793 17.2429 289.793 17.849L288.278 16.6191C288.278 15.0386 288.563 13.6363 289.133 12.4124C289.716 11.1884 290.536 10.2258 291.593 9.52472C292.663 8.81172 293.94 8.45522 295.426 8.45522C296.97 8.45522 298.188 8.78201 299.08 9.43559C299.983 10.0892 300.625 10.9626 301.005 12.0559C301.397 13.1372 301.593 14.3493 301.593 15.6922C301.593 16.2269 301.593 16.9161 301.593 17.7599C301.593 18.6036 301.593 19.6315 301.593 20.8436V27.7418H296.067Z" fill="black"/>
<path d="M307.854 19.9345V16.2804H320.403L319.868 17.2073C319.868 17.1122 319.868 17.0231 319.868 16.9399C319.868 16.8448 319.868 16.7557 319.868 16.6725C319.868 15.9952 319.707 15.3475 319.387 14.7296C319.066 14.0998 318.567 13.5888 317.889 13.1967C317.224 12.7926 316.368 12.5906 315.322 12.5906C314.277 12.5906 313.374 12.8164 312.613 13.268C311.864 13.7076 311.288 14.3434 310.884 15.1752C310.492 16.0071 310.296 17.0112 310.296 18.1876C310.296 19.3997 310.486 20.4395 310.866 21.307C311.258 22.1626 311.835 22.8221 312.595 23.2856C313.368 23.749 314.324 23.9808 315.465 23.9808C316.202 23.9808 316.838 23.9154 317.372 23.7847C317.907 23.6421 318.341 23.4638 318.674 23.2499C319.018 23.036 319.28 22.7984 319.458 22.5369C319.636 22.2755 319.743 22.02 319.779 21.7705H325.233C325.162 22.5666 324.889 23.3509 324.413 24.1234C323.938 24.8839 323.278 25.5731 322.435 26.1911C321.591 26.7971 320.563 27.2784 319.351 27.6349C318.151 27.9914 316.778 28.1696 315.233 28.1696C313.142 28.1696 311.318 27.7537 309.761 26.9219C308.204 26.0782 306.998 24.9195 306.143 23.446C305.287 21.9606 304.859 20.2494 304.859 18.3124C304.859 16.3517 305.293 14.6345 306.16 13.161C307.04 11.6756 308.258 10.5229 309.815 9.70297C311.383 8.87114 313.195 8.45522 315.251 8.45522C317.355 8.45522 319.173 8.87708 320.706 9.72079C322.239 10.5526 323.421 11.7231 324.253 13.2323C325.085 14.7296 325.5 16.4765 325.5 18.4728C325.5 18.7699 325.495 19.0551 325.483 19.3284C325.471 19.6018 325.453 19.8038 325.429 19.9345H307.854Z" fill="black"/>
<path d="M328.954 27.7418V8.81172H334.497V15.3357L333.357 14.6227C333.487 13.7314 333.725 12.9115 334.07 12.1628C334.414 11.4142 334.86 10.7665 335.406 10.2199C335.953 9.66138 336.601 9.22764 337.349 8.91867C338.11 8.6097 338.977 8.45522 339.952 8.45522C340.712 8.45522 341.307 8.51464 341.734 8.63347C342.174 8.74042 342.447 8.8236 342.554 8.88302L341.645 13.8384C341.538 13.7789 341.301 13.6839 340.932 13.5532C340.564 13.4224 340.088 13.3571 339.506 13.3571C338.556 13.3571 337.759 13.5175 337.118 13.8384C336.476 14.1592 335.959 14.587 335.567 15.1218C335.187 15.6446 334.913 16.2269 334.747 16.8686C334.581 17.5103 334.497 18.1579 334.497 18.8115V27.7418H328.954Z" fill="black"/>
<path d="M358.208 25.4959C359.373 25.6147 360.389 25.8405 361.256 26.1732C362.136 26.4941 362.819 26.9754 363.306 27.6171C363.793 28.2469 364.037 29.0906 364.037 30.1482C364.037 31.3722 363.633 32.412 362.825 33.2676C362.029 34.135 360.858 34.7946 359.313 35.2461C357.769 35.6977 355.897 35.9235 353.698 35.9235C350.454 35.9235 347.941 35.4541 346.159 34.5153C344.388 33.5884 343.503 32.3466 343.503 30.7899C343.503 30.3502 343.55 29.9521 343.645 29.5956C343.752 29.251 343.883 28.9539 344.037 28.7044L349.064 29.4352C349.005 29.5184 348.939 29.6432 348.868 29.8095C348.809 29.9878 348.779 30.2076 348.779 30.469C348.779 31.0989 349.248 31.5683 350.187 31.8772C351.138 32.1862 352.362 32.3407 353.859 32.3407C354.917 32.3407 355.82 32.2634 356.568 32.1089C357.329 31.9663 357.905 31.7524 358.297 31.4672C358.701 31.182 358.903 30.8553 358.903 30.4869C358.903 29.9521 358.642 29.6016 358.119 29.4352C357.608 29.2688 357.014 29.15 356.337 29.0787L349.171 28.3479C347.852 28.2172 346.759 27.8369 345.891 27.2071C345.024 26.5773 344.59 25.7276 344.59 24.6581C344.59 23.9926 344.774 23.3866 345.142 22.84C345.511 22.2814 345.933 21.8239 346.408 21.4674C346.883 21.0991 347.282 20.8673 347.602 20.7723L350.419 22.1983C350.193 22.2339 349.926 22.3765 349.617 22.6261C349.319 22.8756 349.171 23.1668 349.171 23.4995C349.171 23.8322 349.337 24.1174 349.67 24.3551C350.015 24.5928 350.639 24.7532 351.542 24.8364L358.208 25.4959ZM360.08 8.81172H364.946L362.967 16.0843C362.599 17.4628 362.052 18.6927 361.328 19.7741C360.603 20.8436 359.634 21.6873 358.422 22.3052C357.222 22.9231 355.707 23.2321 353.877 23.2321C351.952 23.2321 350.282 22.935 348.868 22.3409C347.466 21.7467 346.384 20.9089 345.624 19.8275C344.863 18.7343 344.483 17.4449 344.483 15.9595C344.483 14.4741 344.869 13.167 345.642 12.038C346.426 10.9091 347.489 10.0298 348.832 9.39994C350.187 8.77013 351.72 8.45522 353.431 8.45522C354.726 8.45522 355.909 8.66912 356.978 9.09692C358.06 9.51284 358.927 10.0654 359.581 10.7546C360.246 11.4439 360.591 12.2044 360.615 13.0362L359.599 13.3036L360.08 8.81172ZM353.841 19.1858C354.625 19.1858 355.315 19.0611 355.909 18.8115C356.503 18.5501 356.966 18.1758 357.299 17.6886C357.632 17.1895 357.798 16.5893 357.798 15.8882C357.798 15.199 357.632 14.6108 357.299 14.1236C356.966 13.6363 356.503 13.262 355.909 13.0006C355.315 12.7392 354.625 12.6084 353.841 12.6084C353.092 12.6084 352.415 12.7451 351.809 13.0184C351.215 13.2798 350.745 13.6601 350.401 14.1592C350.056 14.6464 349.884 15.2406 349.884 15.9417C349.884 16.6309 350.05 17.2192 350.383 17.7064C350.716 18.1817 351.179 18.5501 351.773 18.8115C352.368 19.0611 353.057 19.1858 353.841 19.1858Z" fill="black"/>
<path d="M369.092 19.9345V16.2804H381.641L381.106 17.2073C381.106 17.1122 381.106 17.0231 381.106 16.9399C381.106 16.8448 381.106 16.7557 381.106 16.6725C381.106 15.9952 380.946 15.3475 380.625 14.7296C380.304 14.0998 379.805 13.5888 379.128 13.1967C378.462 12.7926 377.607 12.5906 376.561 12.5906C375.515 12.5906 374.612 12.8164 373.852 13.268C373.103 13.7076 372.527 14.3434 372.123 15.1752C371.73 16.0071 371.534 17.0112 371.534 18.1876C371.534 19.3997 371.724 20.4395 372.105 21.307C372.497 22.1626 373.073 22.8221 373.834 23.2856C374.606 23.749 375.563 23.9808 376.704 23.9808C377.44 23.9808 378.076 23.9154 378.611 23.7847C379.146 23.6421 379.579 23.4638 379.912 23.2499C380.257 23.036 380.518 22.7984 380.696 22.5369C380.875 22.2755 380.982 22.02 381.017 21.7705H386.472C386.4 22.5666 386.127 23.3509 385.652 24.1234C385.176 24.8839 384.517 25.5731 383.673 26.1911C382.829 26.7971 381.801 27.2784 380.589 27.6349C379.389 27.9914 378.017 28.1696 376.472 28.1696C374.38 28.1696 372.556 27.7537 371 26.9219C369.443 26.0782 368.237 24.9195 367.381 23.446C366.525 21.9606 366.098 20.2494 366.098 18.3124C366.098 16.3517 366.531 14.6345 367.399 13.161C368.278 11.6756 369.496 10.5229 371.053 9.70297C372.622 8.87114 374.434 8.45522 376.49 8.45522C378.593 8.45522 380.411 8.87708 381.944 9.72079C383.477 10.5526 384.659 11.7231 385.491 13.2323C386.323 14.7296 386.739 16.4765 386.739 18.4728C386.739 18.7699 386.733 19.0551 386.721 19.3284C386.709 19.6018 386.691 19.8038 386.668 19.9345H369.092Z" fill="black"/>
<path d="M403.525 27.7418V19.7028C403.525 19.2512 403.525 18.8412 403.525 18.4728C403.525 18.1045 403.525 17.7717 403.525 17.4747C403.525 16.6904 403.424 15.9774 403.222 15.3357C403.02 14.6821 402.658 14.1592 402.135 13.7671C401.612 13.3749 400.858 13.1788 399.871 13.1788C399.016 13.1788 398.273 13.3749 397.643 13.7671C397.025 14.1592 396.55 14.7058 396.217 15.407C395.884 16.1081 395.718 16.9161 395.718 17.8312L394.185 16.726C394.185 15.0861 394.542 13.6482 395.255 12.4124C395.968 11.1765 396.93 10.208 398.142 9.50689C399.366 8.80578 400.721 8.45522 402.206 8.45522C403.763 8.45522 405.04 8.77013 406.039 9.39994C407.049 10.0179 407.797 10.8854 408.285 12.0024C408.784 13.1075 409.033 14.4028 409.033 15.8882C409.033 16.4943 409.033 17.1716 409.033 17.9203C409.033 18.6689 409.033 19.4354 409.033 20.2197V27.7418H403.525ZM390.192 27.7418V8.81172H395.718V27.7418H390.192Z" fill="black"/>
<path d="M422.057 28.134C421.332 28.134 420.583 28.0686 419.811 27.9379C419.05 27.8191 418.337 27.5755 417.672 27.2071C417.018 26.8268 416.489 26.2742 416.085 25.5494C415.681 24.8245 415.479 23.8679 415.479 22.6795C415.479 22.4181 415.479 22.1507 415.479 21.8774C415.479 21.6041 415.479 21.3308 415.479 21.0575V13.0897H411.112V8.81172H412.342C413.055 8.81172 413.619 8.78201 414.035 8.7226C414.463 8.66318 414.778 8.51464 414.98 8.27697C415.194 8.02742 415.331 7.64121 415.39 7.11835C415.45 6.59548 415.479 5.87654 415.479 4.96153V2.57298H421.023V8.81172H426.531V13.0897H421.023V19.8988C421.023 20.1127 421.023 20.3207 421.023 20.5227C421.023 20.7247 421.023 20.9208 421.023 21.1109C421.023 21.9309 421.118 22.5964 421.308 23.1073C421.51 23.6183 422.003 23.8738 422.787 23.8738C423.18 23.8738 423.548 23.8382 423.893 23.7669C424.249 23.6956 424.516 23.6243 424.695 23.553V27.7062C424.445 27.8131 424.095 27.9082 423.643 27.9914C423.192 28.0864 422.663 28.134 422.057 28.134Z" fill="black"/>
<path d="M431.549 19.9345V16.2804H444.098L443.563 17.2073C443.563 17.1122 443.563 17.0231 443.563 16.9399C443.563 16.8448 443.563 16.7557 443.563 16.6725C443.563 15.9952 443.403 15.3475 443.082 14.7296C442.761 14.0998 442.262 13.5888 441.585 13.1967C440.919 12.7926 440.064 12.5906 439.018 12.5906C437.972 12.5906 437.069 12.8164 436.309 13.268C435.56 13.7076 434.984 14.3434 434.579 15.1752C434.187 16.0071 433.991 17.0112 433.991 18.1876C433.991 19.3997 434.181 20.4395 434.562 21.307C434.954 22.1626 435.53 22.8221 436.291 23.2856C437.063 23.749 438.02 23.9808 439.161 23.9808C439.897 23.9808 440.533 23.9154 441.068 23.7847C441.603 23.6421 442.036 23.4638 442.369 23.2499C442.714 23.036 442.975 22.7984 443.153 22.5369C443.332 22.2755 443.439 22.02 443.474 21.7705H448.929C448.857 22.5666 448.584 23.3509 448.109 24.1234C447.633 24.8839 446.974 25.5731 446.13 26.1911C445.286 26.7971 444.258 27.2784 443.046 27.6349C441.846 27.9914 440.474 28.1696 438.929 28.1696C436.837 28.1696 435.013 27.7537 433.457 26.9219C431.9 26.0782 430.694 24.9195 429.838 23.446C428.982 21.9606 428.555 20.2494 428.555 18.3124C428.555 16.3517 428.988 14.6345 429.856 13.161C430.735 11.6756 431.953 10.5229 433.51 9.70297C435.079 8.87114 436.891 8.45522 438.947 8.45522C441.05 8.45522 442.868 8.87708 444.401 9.72079C445.934 10.5526 447.116 11.7231 447.948 13.2323C448.78 14.7296 449.196 16.4765 449.196 18.4728C449.196 18.7699 449.19 19.0551 449.178 19.3284C449.166 19.6018 449.148 19.8038 449.125 19.9345H431.549Z" fill="black"/>
<path d="M460.528 28.1696C459.399 28.1696 458.312 28.0389 457.266 27.7775C456.22 27.516 455.281 27.1298 454.45 26.6189C453.63 26.1079 452.976 25.4721 452.489 24.7116C452.013 23.9392 451.776 23.042 451.776 22.02C451.776 21.9725 451.776 21.919 451.776 21.8596C451.776 21.7883 451.776 21.7348 451.776 21.6992H457.266C457.266 21.7348 457.266 21.7764 457.266 21.8239C457.266 21.8596 457.266 21.9012 457.266 21.9487C457.266 22.6379 457.569 23.143 458.175 23.4638C458.793 23.7847 459.625 23.9451 460.671 23.9451C461.217 23.9451 461.74 23.8916 462.239 23.7847C462.75 23.6659 463.166 23.4817 463.487 23.2321C463.82 22.9707 463.986 22.6439 463.986 22.2517C463.986 21.6219 463.635 21.1763 462.934 20.9149C462.245 20.6534 461.134 20.392 459.601 20.1306C458.734 19.988 457.854 19.786 456.963 19.5245C456.072 19.2631 455.252 18.9185 454.503 18.4907C453.754 18.051 453.154 17.4984 452.703 16.833C452.251 16.1556 452.025 15.3357 452.025 14.3731C452.025 13.0897 452.412 12.0083 453.184 11.129C453.968 10.2496 455.008 9.58413 456.303 9.13257C457.599 8.681 459.025 8.45522 460.581 8.45522C462.067 8.45522 463.451 8.70477 464.735 9.20387C466.018 9.69108 467.058 10.3981 467.854 11.325C468.65 12.2401 469.048 13.3452 469.048 14.6405C469.048 14.6642 469.048 14.6999 469.048 14.7474C469.048 14.795 469.048 14.8425 469.048 14.89H463.612C463.612 14.8425 463.612 14.8009 463.612 14.7653C463.612 14.7296 463.612 14.6999 463.612 14.6761C463.612 14.2008 463.457 13.8146 463.148 13.5175C462.851 13.2204 462.471 13.0006 462.007 12.858C461.544 12.7035 461.063 12.6263 460.564 12.6263C460.112 12.6263 459.643 12.6797 459.155 12.7867C458.68 12.8818 458.276 13.0481 457.943 13.2858C457.611 13.5116 457.444 13.8324 457.444 14.2483C457.444 14.6524 457.622 14.9851 457.979 15.2465C458.335 15.4961 458.835 15.704 459.476 15.8704C460.118 16.0249 460.861 16.1734 461.704 16.316C462.501 16.4467 463.338 16.6309 464.218 16.8686C465.109 17.0944 465.941 17.4212 466.713 17.849C467.497 18.2649 468.127 18.8175 468.603 19.5067C469.09 20.184 469.333 21.0456 469.333 22.0913C469.333 23.1727 469.084 24.0996 468.585 24.872C468.086 25.6444 467.408 26.2742 466.553 26.7615C465.709 27.2368 464.764 27.5873 463.719 27.8131C462.685 28.0508 461.621 28.1696 460.528 28.1696Z" fill="black"/>
<path d="M122.957 72.1715V45.4519H128.501V72.1715H122.957ZM134.347 64.8098C132.85 64.8098 131.478 64.4117 130.23 63.6155C128.982 62.8075 127.984 61.7261 127.235 60.3714C126.487 59.0048 126.112 57.4719 126.112 55.7726C126.112 55.725 126.112 55.6834 126.112 55.6478C126.112 55.6003 126.112 55.5468 126.112 55.4874L128.501 55.4339C128.501 55.4695 128.501 55.5052 128.501 55.5408C128.501 55.5765 128.501 55.6121 128.501 55.6478C128.501 56.5272 128.715 57.2996 129.142 57.965C129.57 58.6186 130.123 59.1237 130.8 59.4802C131.478 59.8367 132.185 60.0149 132.921 60.0149C134.133 60.0149 135.185 59.599 136.076 58.7672C136.979 57.9234 137.431 56.6103 137.431 54.8278C137.431 53.0453 136.985 51.7501 136.094 50.942C135.203 50.1221 134.145 49.7121 132.921 49.7121C132.185 49.7121 131.478 49.8903 130.8 50.2468C130.123 50.5914 129.57 51.0846 129.142 51.7263C128.715 52.368 128.501 53.1345 128.501 54.0257L126.112 53.8831C126.112 52.1719 126.487 50.6627 127.235 49.3556C127.984 48.0365 128.982 46.9967 130.23 46.2362C131.478 45.4757 132.85 45.0954 134.347 45.0954C135.88 45.0954 137.312 45.4757 138.643 46.2362C139.974 46.9849 141.05 48.0841 141.869 49.5338C142.701 50.9836 143.117 52.7483 143.117 54.8278C143.117 57.0025 142.713 58.8325 141.905 60.3179C141.097 61.8033 140.028 62.9263 138.697 63.6868C137.366 64.4355 135.916 64.8098 134.347 64.8098Z" fill="black"/>
<path d="M152.978 64.7742C151.6 64.7742 150.37 64.5543 149.289 64.1146C148.219 63.675 147.381 63.0392 146.775 62.2074C146.169 61.3755 145.866 60.3655 145.866 59.1771C145.866 57.8343 146.235 56.7411 146.971 55.8973C147.708 55.0536 148.682 54.4119 149.895 53.9722C151.119 53.5207 152.444 53.2236 153.87 53.081C155.949 52.879 157.381 52.6948 158.165 52.5284C158.962 52.3621 159.36 52.0709 159.36 51.655C159.36 51.6431 159.36 51.6312 159.36 51.6193C159.36 50.9182 159.021 50.3657 158.344 49.9616C157.678 49.5576 156.745 49.3556 155.545 49.3556C154.274 49.3556 153.299 49.5873 152.622 50.0508C151.956 50.5023 151.624 51.1975 151.624 52.1363H146.187C146.187 50.6152 146.597 49.3318 147.417 48.2861C148.249 47.2403 149.372 46.4501 150.786 45.9154C152.2 45.3687 153.798 45.0954 155.581 45.0954C157.244 45.0954 158.783 45.3509 160.197 45.8619C161.612 46.361 162.746 47.1156 163.602 48.1257C164.469 49.1357 164.903 50.4191 164.903 51.9758C164.903 52.2254 164.903 52.4749 164.903 52.7245C164.903 52.9622 164.903 53.2058 164.903 53.4553V60.1575C164.903 60.6447 164.915 61.1141 164.939 61.5657C164.974 62.0054 165.046 62.4094 165.153 62.7778C165.272 63.1937 165.42 63.5383 165.598 63.8116C165.777 64.0849 165.925 64.2751 166.044 64.382H160.607C160.524 64.2988 160.393 64.1265 160.215 63.8651C160.049 63.6037 159.906 63.3006 159.787 62.956C159.645 62.5401 159.538 62.1242 159.467 61.7083C159.407 61.2805 159.377 60.7814 159.377 60.211L160.518 60.9953C160.186 61.7796 159.645 62.4569 158.896 63.0273C158.159 63.5858 157.28 64.0196 156.258 64.3285C155.248 64.6256 154.155 64.7742 152.978 64.7742ZM154.458 60.6388C155.325 60.6388 156.133 60.4843 156.882 60.1753C157.643 59.8545 158.26 59.3554 158.736 58.678C159.211 58.0007 159.449 57.1154 159.449 56.0221V54.1148L160.821 55.4517C160.037 55.7369 159.128 55.9746 158.094 56.1647C157.072 56.343 156.05 56.4856 155.028 56.5925C153.816 56.7113 152.907 56.9193 152.301 57.2164C151.707 57.5016 151.41 57.9888 151.41 58.678C151.41 59.3316 151.665 59.8248 152.176 60.1575C152.687 60.4784 153.448 60.6388 154.458 60.6388Z" fill="black"/>
<path d="M168.947 64.382V45.4519H174.491V51.9758L173.35 51.2628C173.48 50.3716 173.718 49.5517 174.063 48.803C174.407 48.0544 174.853 47.4067 175.4 46.8601C175.946 46.3016 176.594 45.8678 177.343 45.5589C178.103 45.2499 178.971 45.0954 179.945 45.0954C180.705 45.0954 181.3 45.1548 181.727 45.2737C182.167 45.3806 182.44 45.4638 182.547 45.5232L181.638 50.4785C181.531 50.4191 181.294 50.3241 180.925 50.1933C180.557 50.0626 180.082 49.9973 179.499 49.9973C178.549 49.9973 177.752 50.1577 177.111 50.4785C176.469 50.7994 175.952 51.2272 175.56 51.7619C175.18 52.2848 174.906 52.8671 174.74 53.5088C174.574 54.1505 174.491 54.7981 174.491 55.4517V64.382H168.947Z" fill="black"/>
<path d="M191.413 64.7742C190.035 64.7742 188.805 64.5543 187.724 64.1146C186.654 63.675 185.816 63.0392 185.21 62.2074C184.604 61.3755 184.301 60.3655 184.301 59.1771C184.301 57.8343 184.67 56.7411 185.406 55.8973C186.143 55.0536 187.118 54.4119 188.33 53.9722C189.554 53.5207 190.879 53.2236 192.305 53.081C194.384 52.879 195.816 52.6948 196.6 52.5284C197.397 52.3621 197.795 52.0709 197.795 51.655C197.795 51.6431 197.795 51.6312 197.795 51.6193C197.795 50.9182 197.456 50.3657 196.779 49.9616C196.113 49.5576 195.18 49.3556 193.98 49.3556C192.709 49.3556 191.734 49.5873 191.057 50.0508C190.391 50.5023 190.059 51.1975 190.059 52.1363H184.622C184.622 50.6152 185.032 49.3318 185.852 48.2861C186.684 47.2403 187.807 46.4501 189.221 45.9154C190.635 45.3687 192.233 45.0954 194.016 45.0954C195.679 45.0954 197.218 45.3509 198.632 45.8619C200.047 46.361 201.181 47.1156 202.037 48.1257C202.905 49.1357 203.338 50.4191 203.338 51.9758C203.338 52.2254 203.338 52.4749 203.338 52.7245C203.338 52.9622 203.338 53.2058 203.338 53.4553V60.1575C203.338 60.6447 203.35 61.1141 203.374 61.5657C203.41 62.0054 203.481 62.4094 203.588 62.7778C203.707 63.1937 203.855 63.5383 204.033 63.8116C204.212 64.0849 204.36 64.2751 204.479 64.382H199.042C198.959 64.2988 198.829 64.1265 198.65 63.8651C198.484 63.6037 198.341 63.3006 198.223 62.956C198.08 62.5401 197.973 62.1242 197.902 61.7083C197.842 61.2805 197.813 60.7814 197.813 60.211L198.953 60.9953C198.621 61.7796 198.08 62.4569 197.331 63.0273C196.595 63.5858 195.715 64.0196 194.693 64.3285C193.683 64.6256 192.59 64.7742 191.413 64.7742ZM192.893 60.6388C193.76 60.6388 194.568 60.4843 195.317 60.1753C196.078 59.8545 196.696 59.3554 197.171 58.678C197.646 58.0007 197.884 57.1154 197.884 56.0221V54.1148L199.256 55.4517C198.472 55.7369 197.563 55.9746 196.529 56.1647C195.507 56.343 194.485 56.4856 193.463 56.5925C192.251 56.7113 191.342 56.9193 190.736 57.2164C190.142 57.5016 189.845 57.9888 189.845 58.678C189.845 59.3316 190.1 59.8248 190.611 60.1575C191.122 60.4784 191.883 60.6388 192.893 60.6388Z" fill="black"/>
<path d="M225.882 64.792C223.838 64.792 222.038 64.3701 220.481 63.5264C218.924 62.6827 217.706 61.5241 216.827 60.0506C215.959 58.5651 215.526 56.8539 215.526 54.917C215.526 52.9919 215.959 51.2926 216.827 49.819C217.706 48.3336 218.924 47.1809 220.481 46.361C222.038 45.5292 223.838 45.1132 225.882 45.1132C227.926 45.1132 229.726 45.5292 231.283 46.361C232.839 47.1809 234.052 48.3336 234.919 49.819C235.798 51.2926 236.238 52.9919 236.238 54.917C236.238 56.8539 235.798 58.5651 234.919 60.0506C234.052 61.5241 232.839 62.6827 231.283 63.5264C229.726 64.3701 227.926 64.792 225.882 64.792ZM225.882 60.4071C226.844 60.4071 227.682 60.1813 228.395 59.7297C229.108 59.2781 229.661 58.6424 230.053 57.8224C230.445 56.9906 230.641 56.0221 230.641 54.917C230.641 53.8118 230.445 52.8552 230.053 52.0471C229.661 51.2272 229.108 50.5974 228.395 50.1577C227.682 49.718 226.844 49.4982 225.882 49.4982C224.931 49.4982 224.093 49.718 223.368 50.1577C222.656 50.5974 222.103 51.2272 221.711 52.0471C221.319 52.8552 221.123 53.8118 221.123 54.917C221.123 56.0221 221.319 56.9906 221.711 57.8224C222.103 58.6424 222.656 59.2781 223.368 59.7297C224.093 60.1813 224.931 60.4071 225.882 60.4071Z" fill="black"/>
<path d="M256.585 64.8098C255.456 64.8098 254.369 64.6791 253.323 64.4177C252.278 64.1562 251.339 63.77 250.507 63.259C249.687 62.7481 249.033 62.1123 248.546 61.3518C248.071 60.5794 247.833 59.6822 247.833 58.6602C247.833 58.6127 247.833 58.5592 247.833 58.4998C247.833 58.4285 247.833 58.375 247.833 58.3394H253.323C253.323 58.375 253.323 58.4166 253.323 58.4641C253.323 58.4998 253.323 58.5414 253.323 58.5889C253.323 59.2781 253.626 59.7832 254.232 60.104C254.85 60.4249 255.682 60.5853 256.728 60.5853C257.275 60.5853 257.797 60.5318 258.297 60.4249C258.807 60.306 259.223 60.1219 259.544 59.8723C259.877 59.6109 260.043 59.2841 260.043 58.8919C260.043 58.2621 259.693 57.8165 258.992 57.5551C258.302 57.2936 257.191 57.0322 255.658 56.7708C254.791 56.6282 253.912 56.4261 253.02 56.1647C252.129 55.9033 251.309 55.5587 250.56 55.1309C249.812 54.6912 249.212 54.1386 248.76 53.4731C248.309 52.7958 248.083 51.9758 248.083 51.0133C248.083 49.7299 248.469 48.6485 249.241 47.7692C250.026 46.8898 251.066 46.2243 252.361 45.7728C253.656 45.3212 255.082 45.0954 256.639 45.0954C258.124 45.0954 259.509 45.345 260.792 45.8441C262.075 46.3313 263.115 47.0383 263.911 47.9652C264.708 48.8802 265.106 49.9854 265.106 51.2807C265.106 51.3044 265.106 51.3401 265.106 51.3876C265.106 51.4352 265.106 51.4827 265.106 51.5302H259.669C259.669 51.4827 259.669 51.4411 259.669 51.4054C259.669 51.3698 259.669 51.3401 259.669 51.3163C259.669 50.841 259.515 50.4548 259.206 50.1577C258.909 49.8606 258.528 49.6408 258.065 49.4982C257.601 49.3437 257.12 49.2665 256.621 49.2665C256.169 49.2665 255.7 49.3199 255.213 49.4269C254.737 49.5219 254.333 49.6883 254.001 49.926C253.668 50.1518 253.502 50.4726 253.502 50.8885C253.502 51.2926 253.68 51.6253 254.036 51.8867C254.393 52.1363 254.892 52.3442 255.534 52.5106C256.175 52.6651 256.918 52.8136 257.762 52.9562C258.558 53.0869 259.396 53.2711 260.275 53.5088C261.166 53.7346 261.998 54.0614 262.771 54.4892C263.555 54.9051 264.185 55.4577 264.66 56.1469C265.147 56.8242 265.391 57.6858 265.391 58.7315C265.391 59.8129 265.141 60.7398 264.642 61.5122C264.143 62.2846 263.466 62.9144 262.61 63.4016C261.766 63.877 260.822 64.2275 259.776 64.4533C258.742 64.691 257.679 64.8098 256.585 64.8098Z" fill="black"/>
<path d="M270.951 56.5747V52.9206H283.499L282.965 53.8475C282.965 53.7524 282.965 53.6633 282.965 53.5801C282.965 53.485 282.965 53.3959 282.965 53.3127C282.965 52.6354 282.804 51.9877 282.483 51.3698C282.162 50.74 281.663 50.229 280.986 49.8369C280.321 49.4328 279.465 49.2308 278.419 49.2308C277.373 49.2308 276.47 49.4566 275.71 49.9082C274.961 50.3478 274.385 50.9836 273.981 51.8154C273.589 52.6473 273.393 53.6514 273.393 54.8278C273.393 56.0399 273.583 57.0797 273.963 57.9472C274.355 58.8028 274.931 59.4623 275.692 59.9258C276.464 60.3892 277.421 60.621 278.562 60.621C279.299 60.621 279.934 60.5556 280.469 60.4249C281.004 60.2823 281.438 60.104 281.77 59.8901C282.115 59.6762 282.376 59.4386 282.555 59.1771C282.733 58.9157 282.84 58.6602 282.875 58.4107H288.33C288.259 59.2068 287.985 59.9911 287.51 60.7636C287.035 61.5241 286.375 62.2133 285.531 62.8312C284.688 63.4373 283.66 63.9186 282.448 64.2751C281.247 64.6316 279.875 64.8098 278.33 64.8098C276.239 64.8098 274.415 64.3939 272.858 63.5621C271.301 62.7184 270.095 61.5597 269.239 60.0862C268.384 58.6008 267.956 56.8896 267.956 54.9526C267.956 52.9919 268.39 51.2747 269.257 49.8012C270.137 48.3158 271.355 47.1631 272.911 46.3432C274.48 45.5113 276.292 45.0954 278.348 45.0954C280.451 45.0954 282.269 45.5173 283.802 46.361C285.335 47.1928 286.518 48.3633 287.35 49.8725C288.181 51.3698 288.597 53.1166 288.597 55.113C288.597 55.4101 288.591 55.6953 288.579 55.9686C288.568 56.242 288.55 56.444 288.526 56.5747H270.951Z" fill="black"/>
<path d="M298.771 64.7385C297.428 64.7385 296.323 64.5246 295.455 64.0968C294.588 63.6571 293.904 63.0689 293.405 62.3321C292.906 61.5954 292.556 60.7754 292.354 59.8723C292.152 58.9692 292.051 58.0542 292.051 57.1273C292.051 56.6995 292.051 56.2479 292.051 55.7726C292.051 55.2972 292.051 54.81 292.051 54.3109V45.4519H297.576V53.4375C297.576 53.8415 297.576 54.2337 297.576 54.6139C297.576 54.9942 297.576 55.3448 297.576 55.6656C297.576 56.4618 297.665 57.1926 297.844 57.8581C298.022 58.5235 298.349 59.0583 298.824 59.4623C299.311 59.8664 300.001 60.0684 300.892 60.0684C301.759 60.0684 302.496 59.8248 303.102 59.3376C303.708 58.8385 304.172 58.2027 304.492 57.4303C304.813 56.6579 304.974 55.8617 304.974 55.0417L306.524 56.3073C306.524 57.4956 306.34 58.6008 305.972 59.6228C305.615 60.6447 305.104 61.5419 304.439 62.3143C303.773 63.0749 302.959 63.669 301.997 64.0968C301.046 64.5246 299.971 64.7385 298.771 64.7385ZM304.974 64.382V45.4519H310.499V64.382H304.974Z" fill="black"/>
<path d="M130.871 101.45C129.291 101.45 127.835 101.076 126.504 100.327C125.173 99.5665 124.104 98.4435 123.296 96.9581C122.488 95.4727 122.084 93.6427 122.084 91.468C122.084 89.3885 122.494 87.6238 123.314 86.174C124.146 84.7243 125.227 83.6251 126.558 82.8764C127.901 82.1159 129.339 81.7356 130.871 81.7356C132.369 81.7356 133.735 82.1159 134.971 82.8764C136.219 83.6369 137.217 84.6767 137.966 85.9958C138.714 87.3029 139.089 88.8121 139.089 90.5233C139.089 90.5827 139.089 90.6421 139.089 90.7016C139.089 90.7491 139.089 90.8026 139.089 90.862L136.7 90.8976C136.7 90.862 136.7 90.8263 136.7 90.7907C136.7 90.7432 136.7 90.7016 136.7 90.6659C136.7 89.7747 136.486 89.0082 136.059 88.3665C135.631 87.7248 135.078 87.2316 134.401 86.887C133.723 86.5305 133.016 86.3523 132.28 86.3523C131.056 86.3523 129.998 86.7623 129.107 87.5822C128.216 88.3903 127.77 89.6855 127.77 91.468C127.77 93.2505 128.216 94.5636 129.107 95.4074C130.01 96.2392 131.068 96.6551 132.28 96.6551C133.04 96.6551 133.759 96.4769 134.436 96.1204C135.114 95.752 135.66 95.235 136.076 94.5696C136.492 93.9041 136.7 93.1198 136.7 92.2167L139.089 92.3415C139.089 94.0408 138.72 95.5797 137.984 96.9581C137.259 98.3247 136.272 99.418 135.025 100.238C133.789 101.046 132.404 101.45 130.871 101.45ZM136.7 101.022V73.1618H142.244V101.022H136.7Z" fill="black"/>
<path d="M148.578 93.2149V89.5608H161.127L160.592 90.4877C160.592 90.3926 160.592 90.3035 160.592 90.2203C160.592 90.1252 160.592 90.0361 160.592 89.9529C160.592 89.2756 160.432 88.6279 160.111 88.01C159.79 87.3802 159.291 86.8692 158.613 86.477C157.948 86.073 157.092 85.871 156.047 85.871C155.001 85.871 154.098 86.0968 153.337 86.5484C152.589 86.988 152.012 87.6238 151.608 88.4556C151.216 89.2875 151.02 90.2916 151.02 91.468C151.02 92.6801 151.21 93.7199 151.59 94.5874C151.983 95.443 152.559 96.1025 153.319 96.566C154.092 97.0294 155.049 97.2612 156.189 97.2612C156.926 97.2612 157.562 97.1958 158.097 97.0651C158.631 96.9225 159.065 96.7442 159.398 96.5303C159.742 96.3164 160.004 96.0788 160.182 95.8173C160.36 95.5559 160.467 95.3004 160.503 95.0509H165.957C165.886 95.847 165.613 96.6313 165.137 97.4037C164.662 98.1643 164.003 98.8535 163.159 99.4714C162.315 100.077 161.287 100.559 160.075 100.915C158.875 101.272 157.502 101.45 155.958 101.45C153.866 101.45 152.042 101.034 150.485 100.202C148.929 99.3585 147.722 98.1999 146.867 96.7264C146.011 95.241 145.583 93.5298 145.583 91.5928C145.583 89.6321 146.017 87.9149 146.885 86.4414C147.764 84.956 148.982 83.8033 150.539 82.9834C152.107 82.1515 153.92 81.7356 155.975 81.7356C158.079 81.7356 159.897 82.1575 161.43 83.0012C162.963 83.833 164.145 85.0035 164.977 86.5127C165.809 88.01 166.225 89.7568 166.225 91.7532C166.225 92.0503 166.219 92.3355 166.207 92.6088C166.195 92.8821 166.177 93.0842 166.153 93.2149H148.578Z" fill="black"/>
<path d="M177.557 101.45C176.428 101.45 175.34 101.319 174.295 101.058C173.249 100.796 172.31 100.41 171.478 99.8992C170.658 99.3883 170.005 98.7525 169.518 97.992C169.042 97.2196 168.805 96.3224 168.805 95.3004C168.805 95.2529 168.805 95.1994 168.805 95.14C168.805 95.0687 168.805 95.0152 168.805 94.9796H174.295C174.295 95.0152 174.295 95.0568 174.295 95.1043C174.295 95.14 174.295 95.1816 174.295 95.2291C174.295 95.9183 174.598 96.4234 175.204 96.7442C175.822 97.0651 176.654 97.2255 177.699 97.2255C178.246 97.2255 178.769 97.172 179.268 97.0651C179.779 96.9462 180.195 96.7621 180.516 96.5125C180.848 96.2511 181.015 95.9243 181.015 95.5321C181.015 94.9023 180.664 94.4567 179.963 94.1953C179.274 93.9338 178.163 93.6724 176.63 93.411C175.762 93.2684 174.883 93.0663 173.992 92.8049C173.1 92.5435 172.281 92.1989 171.532 91.7711C170.783 91.3314 170.183 90.7788 169.732 90.1133C169.28 89.436 169.054 88.616 169.054 87.6535C169.054 86.3701 169.44 85.2887 170.213 84.4094C170.997 83.53 172.037 82.8645 173.332 82.413C174.627 81.9614 176.053 81.7356 177.61 81.7356C179.096 81.7356 180.48 81.9852 181.763 82.4843C183.047 82.9715 184.087 83.6785 184.883 84.6054C185.679 85.5204 186.077 86.6256 186.077 87.9209C186.077 87.9446 186.077 87.9803 186.077 88.0278C186.077 88.0754 186.077 88.1229 186.077 88.1704H180.64C180.64 88.1229 180.64 88.0813 180.64 88.0456C180.64 88.01 180.64 87.9803 180.64 87.9565C180.64 87.4812 180.486 87.095 180.177 86.7979C179.88 86.5008 179.5 86.281 179.036 86.1384C178.573 85.9839 178.091 85.9067 177.592 85.9067C177.141 85.9067 176.671 85.9601 176.184 86.0671C175.709 86.1621 175.305 86.3285 174.972 86.5662C174.639 86.792 174.473 87.1128 174.473 87.5287C174.473 87.9328 174.651 88.2655 175.008 88.5269C175.364 88.7765 175.863 88.9844 176.505 89.1508C177.147 89.3053 177.889 89.4538 178.733 89.5964C179.529 89.7271 180.367 89.9113 181.246 90.149C182.138 90.3748 182.97 90.7016 183.742 91.1294C184.526 91.5453 185.156 92.0979 185.631 92.7871C186.119 93.4644 186.362 94.326 186.362 95.3717C186.362 96.4531 186.113 97.38 185.614 98.1524C185.114 98.9248 184.437 99.5546 183.582 100.042C182.738 100.517 181.793 100.868 180.747 101.094C179.714 101.331 178.65 101.45 177.557 101.45Z" fill="black"/>
<path d="M191.922 93.2149V89.5608H204.471L203.936 90.4877C203.936 90.3926 203.936 90.3035 203.936 90.2203C203.936 90.1252 203.936 90.0361 203.936 89.9529C203.936 89.2756 203.776 88.6279 203.455 88.01C203.134 87.3802 202.635 86.8692 201.957 86.477C201.292 86.073 200.436 85.871 199.391 85.871C198.345 85.871 197.442 86.0968 196.681 86.5484C195.933 86.988 195.356 87.6238 194.952 88.4556C194.56 89.2875 194.364 90.2916 194.364 91.468C194.364 92.6801 194.554 93.7199 194.934 94.5874C195.327 95.443 195.903 96.1025 196.663 96.566C197.436 97.0294 198.392 97.2612 199.533 97.2612C200.27 97.2612 200.906 97.1958 201.44 97.0651C201.975 96.9225 202.409 96.7442 202.742 96.5303C203.086 96.3164 203.348 96.0788 203.526 95.8173C203.704 95.5559 203.811 95.3004 203.847 95.0509H209.301C209.23 95.847 208.957 96.6313 208.481 97.4037C208.006 98.1643 207.346 98.8535 206.503 99.4714C205.659 100.077 204.631 100.559 203.419 100.915C202.219 101.272 200.846 101.45 199.301 101.45C197.21 101.45 195.386 101.034 193.829 100.202C192.272 99.3585 191.066 98.1999 190.211 96.7264C189.355 95.241 188.927 93.5298 188.927 91.5928C188.927 89.6321 189.361 87.9149 190.229 86.4414C191.108 84.956 192.326 83.8033 193.883 82.9834C195.451 82.1515 197.263 81.7356 199.319 81.7356C201.423 81.7356 203.241 82.1575 204.774 83.0012C206.307 83.833 207.489 85.0035 208.321 86.5127C209.153 88.01 209.569 89.7568 209.569 91.7532C209.569 92.0503 209.563 92.3355 209.551 92.6088C209.539 92.8821 209.521 93.0842 209.497 93.2149H191.922Z" fill="black"/>
<path d="M226.355 101.022V92.9832C226.355 92.5316 226.355 92.1216 226.355 91.7532C226.355 91.3849 226.355 91.0521 226.355 90.755C226.355 89.9707 226.254 89.2577 226.052 88.616C225.85 87.9625 225.488 87.4396 224.965 87.0474C224.442 86.6553 223.687 86.4592 222.701 86.4592C221.845 86.4592 221.103 86.6553 220.473 87.0474C219.855 87.4396 219.38 87.9862 219.047 88.6873C218.714 89.3885 218.548 90.1965 218.548 91.1115L217.015 90.0064C217.015 88.3665 217.371 86.9286 218.084 85.6927C218.797 84.4569 219.76 83.4884 220.972 82.7873C222.196 82.0862 223.551 81.7356 225.036 81.7356C226.593 81.7356 227.87 82.0505 228.868 82.6803C229.878 83.2983 230.627 84.1658 231.114 85.2828C231.613 86.3879 231.863 87.6832 231.863 89.1686C231.863 89.7747 231.863 90.452 231.863 91.2007C231.863 91.9493 231.863 92.7158 231.863 93.5001V101.022H226.355ZM213.022 101.022V82.0921H218.548V101.022H213.022Z" fill="black"/>
<path d="M252.334 82.0921L246.595 101.022H239.144L233.279 82.0921H238.983L243.297 99.3467H242.441L246.613 82.0921H252.334Z" fill="black"/>
<path d="M263.69 101.432C261.646 101.432 259.846 101.01 258.289 100.167C256.733 99.3229 255.515 98.1643 254.635 96.6908C253.768 95.2053 253.334 93.4941 253.334 91.5572C253.334 89.6321 253.768 87.9328 254.635 86.4592C255.515 84.9738 256.733 83.8211 258.289 83.0012C259.846 82.1694 261.646 81.7534 263.69 81.7534C265.734 81.7534 267.534 82.1694 269.091 83.0012C270.648 83.8211 271.86 84.9738 272.727 86.4592C273.607 87.9328 274.047 89.6321 274.047 91.5572C274.047 93.4941 273.607 95.2053 272.727 96.6908C271.86 98.1643 270.648 99.3229 269.091 100.167C267.534 101.01 265.734 101.432 263.69 101.432ZM263.69 97.0472C264.653 97.0472 265.491 96.8215 266.204 96.3699C266.917 95.9183 267.469 95.2826 267.861 94.4626C268.253 93.6308 268.449 92.6623 268.449 91.5572C268.449 90.452 268.253 89.4954 267.861 88.6873C267.469 87.8674 266.917 87.2376 266.204 86.7979C265.491 86.3582 264.653 86.1384 263.69 86.1384C262.74 86.1384 261.902 86.3582 261.177 86.7979C260.464 87.2376 259.911 87.8674 259.519 88.6873C259.127 89.4954 258.931 90.452 258.931 91.5572C258.931 92.6623 259.127 93.6308 259.519 94.4626C259.911 95.2826 260.464 95.9183 261.177 96.3699C261.902 96.8215 262.74 97.0472 263.69 97.0472Z" fill="black"/>
<path d="M283.22 73.1618V101.022H277.766V73.1618H283.22Z" fill="black"/>
<path d="M305.008 82.0921L299.269 101.022H291.818L285.954 82.0921H291.658L295.971 99.3467H295.116L299.287 82.0921H305.008Z" fill="black"/>
<path d="M307.434 101.022V82.0921H312.906V101.022H307.434ZM310.161 79.0084C309.305 79.0084 308.556 78.7826 307.915 78.331C307.285 77.8795 306.97 77.2437 306.97 76.4238C306.97 75.5919 307.285 74.9502 307.915 74.4987C308.556 74.0471 309.305 73.8213 310.161 73.8213C311.028 73.8213 311.777 74.0471 312.407 74.4987C313.048 74.9502 313.369 75.5919 313.369 76.4238C313.369 77.2556 313.048 77.8973 312.407 78.3489C311.777 78.7885 311.028 79.0084 310.161 79.0084Z" fill="black"/>
<path d="M328.796 101.022V93.6962C328.796 92.995 328.796 92.389 328.796 91.878C328.796 91.3551 328.796 90.9214 328.796 90.5768C328.796 90.0896 328.766 89.6083 328.706 89.133C328.659 88.6576 328.54 88.218 328.35 87.8139C328.172 87.398 327.892 87.0712 327.512 86.8335C327.132 86.584 326.615 86.4592 325.961 86.4592C325.355 86.4592 324.833 86.5899 324.393 86.8514C323.953 87.1009 323.591 87.4515 323.306 87.903C323.032 88.3427 322.83 88.8537 322.699 89.436C322.569 90.0064 322.503 90.6065 322.503 91.2363L320.988 89.9886C320.988 88.3843 321.279 86.9643 321.862 85.7284C322.444 84.4807 323.27 83.5062 324.339 82.8051C325.421 82.0921 326.698 81.7356 328.172 81.7356C329.752 81.7356 330.982 82.0743 331.862 82.7516C332.753 83.4171 333.377 84.3083 333.733 85.4254C334.102 86.5305 334.286 87.7545 334.286 89.0973C334.286 89.6083 334.286 90.2975 334.286 91.165C334.286 92.0325 334.286 93.0723 334.286 94.2844V101.022H328.796ZM316.978 101.022V82.0921H322.503V101.022H316.978ZM340.56 101.022V93.714C340.56 92.9891 340.56 92.3652 340.56 91.8424C340.56 91.3195 340.56 90.8858 340.56 90.5411C340.56 90.0183 340.53 89.5192 340.471 89.0438C340.412 88.5566 340.287 88.1169 340.097 87.7248C339.907 87.3326 339.621 87.0237 339.241 86.7979C338.861 86.5721 338.344 86.4592 337.69 86.4592C337.084 86.4592 336.561 86.5899 336.122 86.8514C335.694 87.1009 335.343 87.4455 335.07 87.8852C334.797 88.3249 334.595 88.824 334.464 89.3825C334.345 89.941 334.286 90.5233 334.286 91.1294L332.771 89.8994C332.771 88.319 333.056 86.9167 333.626 85.6927C334.208 84.4688 335.028 83.5062 336.086 82.8051C337.156 82.0921 338.433 81.7356 339.918 81.7356C341.463 81.7356 342.681 82.0624 343.573 82.716C344.476 83.3696 345.117 84.243 345.498 85.3363C345.89 86.4176 346.086 87.6297 346.086 88.9725C346.086 89.5073 346.086 90.1965 346.086 91.0402C346.086 91.884 346.086 92.9119 346.086 94.124V101.022H340.56Z" fill="black"/>
<path d="M352.347 93.2149V89.5608H364.895L364.361 90.4877C364.361 90.3926 364.361 90.3035 364.361 90.2203C364.361 90.1252 364.361 90.0361 364.361 89.9529C364.361 89.2756 364.2 88.6279 363.879 88.01C363.558 87.3802 363.059 86.8692 362.382 86.477C361.717 86.073 360.861 85.871 359.815 85.871C358.77 85.871 357.866 86.0968 357.106 86.5484C356.357 86.988 355.781 87.6238 355.377 88.4556C354.985 89.2875 354.789 90.2916 354.789 91.468C354.789 92.6801 354.979 93.7199 355.359 94.5874C355.751 95.443 356.327 96.1025 357.088 96.566C357.86 97.0294 358.817 97.2612 359.958 97.2612C360.695 97.2612 361.33 97.1958 361.865 97.0651C362.4 96.9225 362.834 96.7442 363.166 96.5303C363.511 96.3164 363.772 96.0788 363.951 95.8173C364.129 95.5559 364.236 95.3004 364.271 95.0509H369.726C369.655 95.847 369.381 96.6313 368.906 97.4037C368.431 98.1643 367.771 98.8535 366.927 99.4714C366.084 100.077 365.056 100.559 363.844 100.915C362.643 101.272 361.271 101.45 359.726 101.45C357.635 101.45 355.811 101.034 354.254 100.202C352.697 99.3585 351.491 98.1999 350.635 96.7264C349.78 95.241 349.352 93.5298 349.352 91.5928C349.352 89.6321 349.786 87.9149 350.653 86.4414C351.533 84.956 352.751 83.8033 354.307 82.9834C355.876 82.1515 357.688 81.7356 359.744 81.7356C361.847 81.7356 363.665 82.1575 365.198 83.0012C366.731 83.833 367.914 85.0035 368.746 86.5127C369.577 88.01 369.993 89.7568 369.993 91.7532C369.993 92.0503 369.987 92.3355 369.975 92.6088C369.964 92.8821 369.946 93.0842 369.922 93.2149H352.347Z" fill="black"/>
<path d="M386.78 101.022V92.9832C386.78 92.5316 386.78 92.1216 386.78 91.7532C386.78 91.3849 386.78 91.0521 386.78 90.755C386.78 89.9707 386.679 89.2577 386.477 88.616C386.275 87.9625 385.912 87.4396 385.389 87.0474C384.866 86.6553 384.112 86.4592 383.126 86.4592C382.27 86.4592 381.527 86.6553 380.897 87.0474C380.279 87.4396 379.804 87.9862 379.471 88.6873C379.139 89.3885 378.972 90.1965 378.972 91.1115L377.439 90.0064C377.439 88.3665 377.796 86.9286 378.509 85.6927C379.222 84.4569 380.184 83.4884 381.397 82.7873C382.62 82.0862 383.975 81.7356 385.461 81.7356C387.017 81.7356 388.295 82.0505 389.293 82.6803C390.303 83.2983 391.052 84.1658 391.539 85.2828C392.038 86.3879 392.288 87.6832 392.288 89.1686C392.288 89.7747 392.288 90.452 392.288 91.2007C392.288 91.9493 392.288 92.7158 392.288 93.5001V101.022H386.78ZM373.447 101.022V82.0921H378.972V101.022H373.447Z" fill="black"/>
<path d="M405.311 101.414C404.586 101.414 403.837 101.349 403.065 101.218C402.304 101.099 401.591 100.856 400.926 100.487C400.272 100.107 399.744 99.5546 399.34 98.8298C398.936 98.1049 398.734 97.1483 398.734 95.9599C398.734 95.6985 398.734 95.4311 398.734 95.1578C398.734 94.8845 398.734 94.6112 398.734 94.3379V86.3701H394.366V82.0921H395.596C396.309 82.0921 396.874 82.0624 397.29 82.003C397.718 81.9436 398.032 81.795 398.234 81.5574C398.448 81.3078 398.585 80.9216 398.644 80.3987C398.704 79.8759 398.734 79.1569 398.734 78.2419V75.8534H404.277V82.0921H409.785V86.3701H404.277V93.1792C404.277 93.3931 404.277 93.6011 404.277 93.8031C404.277 94.0051 404.277 94.2012 404.277 94.3913C404.277 95.2113 404.372 95.8767 404.562 96.3877C404.764 96.8987 405.257 97.1542 406.042 97.1542C406.434 97.1542 406.802 97.1185 407.147 97.0472C407.503 96.9759 407.771 96.9047 407.949 96.8334V100.987C407.699 101.094 407.349 101.189 406.897 101.272C406.446 101.367 405.917 101.414 405.311 101.414Z" fill="black"/>
<path d="M422.165 101.432C420.121 101.432 418.321 101.01 416.764 100.167C415.208 99.3229 413.99 98.1643 413.11 96.6908C412.243 95.2053 411.809 93.4941 411.809 91.5572C411.809 89.6321 412.243 87.9328 413.11 86.4592C413.99 84.9738 415.208 83.8211 416.764 83.0012C418.321 82.1694 420.121 81.7534 422.165 81.7534C424.209 81.7534 426.01 82.1694 427.566 83.0012C429.123 83.8211 430.335 84.9738 431.203 86.4592C432.082 87.9328 432.522 89.6321 432.522 91.5572C432.522 93.4941 432.082 95.2053 431.203 96.6908C430.335 98.1643 429.123 99.3229 427.566 100.167C426.01 101.01 424.209 101.432 422.165 101.432ZM422.165 97.0472C423.128 97.0472 423.966 96.8215 424.679 96.3699C425.392 95.9183 425.944 95.2826 426.336 94.4626C426.728 93.6308 426.925 92.6623 426.925 91.5572C426.925 90.452 426.728 89.4954 426.336 88.6873C425.944 87.8674 425.392 87.2376 424.679 86.7979C423.966 86.3582 423.128 86.1384 422.165 86.1384C421.215 86.1384 420.377 86.3582 419.652 86.7979C418.939 87.2376 418.386 87.8674 417.994 88.6873C417.602 89.4954 417.406 90.452 417.406 91.5572C417.406 92.6623 417.602 93.6308 417.994 94.4626C418.386 95.2826 418.939 95.9183 419.652 96.3699C420.377 96.8215 421.215 97.0472 422.165 97.0472Z" fill="black"/>
<path d="M24.1061 100C15.9554 100 9.88082 97.6932 5.88235 93.0796C1.96078 88.466 0 81.6225 0 72.549V0H19.2618V71.7416C19.2618 74.8943 19.5694 77.3549 20.1845 79.1234C20.7997 80.892 22.1069 81.7762 24.1061 81.7762C26.1053 81.7762 27.4125 80.9304 28.0277 79.2388C28.6428 77.4702 28.9504 74.9712 28.9504 71.7416V0H48.2122V72.549C48.2122 81.6225 46.213 88.466 42.2145 93.0796C38.293 97.6932 32.2568 100 24.1061 100Z" fill="black"/>
<path d="M55.7823 0H81.9646C89.8846 0 95.5363 2.57593 98.9196 7.72779C102.303 12.8028 103.995 20.2614 103.995 30.1038C103.995 39.9462 102.495 47.3664 99.4963 52.3645C96.4974 57.3626 91.1149 59.8616 83.3487 59.8616H75.2748V99.0773H55.7823V0ZM76.4282 41.9838C78.8119 41.9838 80.542 41.5609 81.6186 40.7151C82.772 39.7924 83.5024 38.5236 83.81 36.9089C84.1945 35.2172 84.3867 32.8335 84.3867 29.7578C84.3867 25.6055 83.9254 22.6067 83.0026 20.7612C82.0799 18.9158 80.2345 17.9931 77.4663 17.9931H75.2748V41.9838H76.4282Z" fill="black"/>
</svg>
