<svg width="274" height="32" viewBox="0 0 274 32" fill="none" xmlns="http://www.w3.org/2000/svg">
<path d="M19.971 19.404C19.971 23.492 19.096 26.509 17.346 28.455C15.596 30.387 13.139 31.353 9.975 31.353C6.825 31.353 4.375 30.387 2.625 28.455C0.875 26.509 0 23.492 0 19.404C0 18.732 0 18.018 0 17.262C0 16.506 0 15.701 0 14.847V0H1.617V14.763C1.617 15.617 1.617 16.415 1.617 17.157C1.617 17.899 1.617 18.585 1.617 19.215C1.617 22.939 2.345 25.648 3.801 27.342C5.257 29.036 7.315 29.883 9.975 29.883C12.649 29.883 14.714 29.036 16.17 27.342C17.626 25.648 18.354 22.939 18.354 19.215V0H19.971V19.404Z" fill="black"/>
<path d="M28.4412 30.975H26.8242V0H34.2372C36.6452 0 38.6052 0.433999 40.1172 1.302C41.6292 2.17 42.7422 3.332 43.4562 4.788C44.1702 6.244 44.5272 7.847 44.5272 9.597C44.5272 11.347 44.1562 12.964 43.4142 14.448C42.6722 15.932 41.5382 17.122 40.0122 18.018C38.5002 18.9 36.5752 19.341 34.2372 19.341H28.4412V30.975ZM28.4412 18.69L27.7062 17.892H33.9642C36.0362 17.892 37.7302 17.528 39.0462 16.8C40.3622 16.072 41.3282 15.085 41.9442 13.839C42.5742 12.579 42.8892 11.165 42.8892 9.597C42.8892 8.029 42.5882 6.629 41.9862 5.397C41.3982 4.165 40.4462 3.199 39.1302 2.499C37.8282 1.799 36.1062 1.449 33.9642 1.449H27.7062L28.4412 0.566999V18.69Z" fill="black"/>
<path d="M63.3368 25.185C62.2702 25.185 61.3135 24.9616 60.4668 24.515C59.6268 24.0616 58.9635 23.4183 58.4768 22.585C57.9968 21.7516 57.7568 20.7716 57.7568 19.645C57.7568 18.5183 57.9968 17.5483 58.4768 16.735C58.9635 15.915 59.6268 15.285 60.4668 14.845C61.3135 14.405 62.2702 14.185 63.3368 14.185C64.1435 14.185 64.8602 14.3083 65.4868 14.555C66.1135 14.795 66.6435 15.115 67.0768 15.515C67.5102 15.915 67.8402 16.355 68.0668 16.835C68.2935 17.315 68.4068 17.795 68.4068 18.275C68.4068 18.2816 68.4068 18.2916 68.4068 18.305C68.4068 18.3183 68.4068 18.3316 68.4068 18.345H66.2568C66.2568 18.3116 66.2535 18.275 66.2468 18.235C66.2402 18.1883 66.2335 18.145 66.2268 18.105C66.1735 17.7116 66.0202 17.3616 65.7668 17.055C65.5135 16.7483 65.1802 16.505 64.7668 16.325C64.3535 16.145 63.8702 16.055 63.3168 16.055C62.7102 16.055 62.1502 16.1883 61.6368 16.455C61.1302 16.715 60.7235 17.1116 60.4168 17.645C60.1102 18.1783 59.9568 18.845 59.9568 19.645C59.9568 20.445 60.1068 21.1183 60.4068 21.665C60.7135 22.205 61.1202 22.615 61.6268 22.895C62.1402 23.175 62.7035 23.315 63.3168 23.315C63.9768 23.315 64.5168 23.215 64.9368 23.015C65.3568 22.8083 65.6735 22.535 65.8868 22.195C66.1002 21.8483 66.2235 21.475 66.2568 21.075H68.4068C68.4068 21.555 68.2968 22.0416 68.0768 22.535C67.8568 23.0216 67.5335 23.465 67.1068 23.865C66.6802 24.265 66.1502 24.585 65.5168 24.825C64.8902 25.065 64.1635 25.185 63.3368 25.185Z" fill="black"/>
<path d="M75.934 25.175C74.8407 25.175 73.874 24.9383 73.034 24.465C72.2007 23.9916 71.5474 23.3416 71.074 22.515C70.6074 21.6816 70.374 20.7283 70.374 19.655C70.374 18.5883 70.6074 17.645 71.074 16.825C71.5474 15.9983 72.2007 15.355 73.034 14.895C73.874 14.4283 74.8407 14.195 75.934 14.195C77.0274 14.195 77.9907 14.4283 78.824 14.895C79.664 15.355 80.3174 15.9983 80.784 16.825C81.2574 17.645 81.494 18.5883 81.494 19.655C81.494 20.7283 81.2574 21.6816 80.784 22.515C80.3174 23.3416 79.664 23.9916 78.824 24.465C77.9907 24.9383 77.0274 25.175 75.934 25.175ZM75.934 23.315C76.6007 23.315 77.1874 23.165 77.694 22.865C78.2007 22.565 78.5974 22.1416 78.884 21.595C79.1707 21.0416 79.314 20.395 79.314 19.655C79.314 18.9216 79.1707 18.285 78.884 17.745C78.5974 17.205 78.2007 16.7883 77.694 16.495C77.1874 16.2016 76.6007 16.055 75.934 16.055C75.274 16.055 74.6874 16.2016 74.174 16.495C73.6674 16.7883 73.2707 17.205 72.984 17.745C72.6974 18.285 72.554 18.9216 72.554 19.655C72.554 20.395 72.6974 21.0416 72.984 21.595C73.2707 22.1416 73.6674 22.565 74.174 22.865C74.6874 23.165 75.274 23.315 75.934 23.315Z" fill="black"/>
<path d="M90.4795 24.975V20.475C90.4795 20.0683 90.4795 19.7183 90.4795 19.425C90.4795 19.125 90.4795 18.8716 90.4795 18.665C90.4795 18.405 90.4595 18.1283 90.4195 17.835C90.3862 17.5416 90.3062 17.2683 90.1795 17.015C90.0595 16.755 89.8695 16.545 89.6095 16.385C89.3495 16.225 88.9928 16.145 88.5395 16.145C88.0862 16.145 87.7028 16.235 87.3895 16.415C87.0762 16.595 86.8228 16.835 86.6295 17.135C86.4362 17.4283 86.2962 17.7583 86.2095 18.125C86.1228 18.485 86.0795 18.8483 86.0795 19.215L85.1595 18.715C85.1595 17.8816 85.3228 17.125 85.6495 16.445C85.9828 15.7583 86.4495 15.2116 87.0495 14.805C87.6562 14.3916 88.3695 14.185 89.1895 14.185C90.0228 14.185 90.6895 14.3583 91.1895 14.705C91.6962 15.045 92.0628 15.5116 92.2895 16.105C92.5162 16.6916 92.6295 17.3583 92.6295 18.105C92.6295 18.3783 92.6295 18.735 92.6295 19.175C92.6295 19.615 92.6295 20.125 92.6295 20.705V24.975H90.4795ZM83.9095 24.975V14.355H86.0795V24.975H83.9095ZM97.0195 24.975V20.485C97.0195 20.045 97.0195 19.6783 97.0195 19.385C97.0195 19.085 97.0195 18.835 97.0195 18.635C97.0195 18.3616 97.0028 18.0816 96.9695 17.795C96.9362 17.5016 96.8562 17.2316 96.7295 16.985C96.6028 16.7383 96.4062 16.5383 96.1395 16.385C95.8795 16.225 95.5162 16.145 95.0495 16.145C94.5895 16.145 94.2028 16.235 93.8895 16.415C93.5828 16.5883 93.3362 16.8216 93.1495 17.115C92.9628 17.4016 92.8295 17.7183 92.7495 18.065C92.6695 18.4116 92.6295 18.755 92.6295 19.095L91.7095 18.615C91.7095 17.815 91.8695 17.0783 92.1895 16.405C92.5162 15.7316 92.9762 15.195 93.5695 14.795C94.1695 14.3883 94.8795 14.185 95.6995 14.185C96.4995 14.185 97.1562 14.345 97.6695 14.665C98.1828 14.985 98.5628 15.4283 98.8095 15.995C99.0562 16.5616 99.1795 17.2183 99.1795 17.965C99.1795 18.2516 99.1795 18.6116 99.1795 19.045C99.1795 19.4783 99.1795 19.9816 99.1795 20.555V24.975H97.0195Z" fill="black"/>
<path d="M106.217 24.975L110.157 10.195H113.567L117.467 24.975H115.237L111.847 11.565H111.867L108.457 24.975H106.217ZM108.497 21.225V19.425H115.217V21.225H108.497Z" fill="black"/>
<path d="M121.883 9.34497V24.975H119.743V9.34497H121.883Z" fill="black"/>
<path d="M125.558 20.425V18.735H133.378L133.078 19.235C133.078 19.195 133.078 19.155 133.078 19.115C133.078 19.0683 133.078 19.0283 133.078 18.995C133.078 18.455 132.962 17.9583 132.728 17.505C132.495 17.045 132.145 16.6783 131.678 16.405C131.218 16.125 130.642 15.985 129.948 15.985C129.255 15.985 128.645 16.135 128.118 16.435C127.598 16.7283 127.192 17.1483 126.898 17.695C126.612 18.235 126.468 18.885 126.468 19.645C126.468 20.4183 126.608 21.085 126.888 21.645C127.168 22.1983 127.572 22.625 128.098 22.925C128.625 23.225 129.255 23.375 129.988 23.375C130.502 23.375 130.945 23.325 131.318 23.225C131.698 23.1183 132.008 22.9783 132.248 22.805C132.495 22.6316 132.682 22.445 132.808 22.245C132.935 22.0383 133.008 21.835 133.028 21.635H135.188C135.148 22.0683 135.005 22.4983 134.758 22.925C134.518 23.345 134.175 23.7283 133.728 24.075C133.288 24.415 132.748 24.6883 132.108 24.895C131.475 25.095 130.745 25.195 129.918 25.195C128.812 25.195 127.842 24.9616 127.008 24.495C126.175 24.0283 125.525 23.3816 125.058 22.555C124.592 21.7216 124.358 20.7683 124.358 19.695C124.358 18.6016 124.595 17.6416 125.068 16.815C125.542 15.9883 126.198 15.345 127.038 14.885C127.878 14.4183 128.842 14.185 129.928 14.185C131.035 14.185 131.992 14.4183 132.798 14.885C133.612 15.3516 134.238 15.995 134.678 16.815C135.118 17.635 135.338 18.5783 135.338 19.645C135.338 19.7716 135.335 19.9183 135.328 20.085C135.322 20.2516 135.312 20.365 135.298 20.425H125.558Z" fill="black"/>
<path d="M140.474 19.255L140.454 20.265L136.224 14.355H138.594L141.944 19.105L140.644 19.085L143.914 14.355H146.244L142.164 19.955L142.184 19.165L146.304 24.975H143.934L140.564 20.265L142.014 20.055L138.394 24.975H136.074L140.474 19.255Z" fill="black"/>
<path d="M151.261 25.185C150.461 25.185 149.758 25.0583 149.151 24.805C148.551 24.5516 148.085 24.1883 147.751 23.715C147.418 23.2416 147.251 22.6716 147.251 22.005C147.251 21.2916 147.438 20.7016 147.811 20.235C148.191 19.7683 148.711 19.4083 149.371 19.155C150.038 18.895 150.795 18.725 151.641 18.645C152.901 18.5183 153.788 18.395 154.301 18.275C154.821 18.155 155.081 17.9583 155.081 17.685C155.081 17.6783 155.081 17.6716 155.081 17.665C155.081 17.125 154.851 16.715 154.391 16.435C153.931 16.155 153.275 16.015 152.421 16.015C151.521 16.015 150.825 16.175 150.331 16.495C149.845 16.8083 149.601 17.3083 149.601 17.995H147.471C147.471 17.1816 147.681 16.4916 148.101 15.925C148.528 15.3583 149.115 14.9283 149.861 14.635C150.608 14.335 151.465 14.185 152.431 14.185C153.318 14.185 154.125 14.3216 154.851 14.595C155.585 14.8616 156.168 15.2616 156.601 15.795C157.035 16.3283 157.251 16.9916 157.251 17.785C157.251 17.925 157.251 18.065 157.251 18.205C157.251 18.3383 157.251 18.475 157.251 18.615V22.855C157.251 23.1016 157.261 23.3416 157.281 23.575C157.301 23.8016 157.338 24.005 157.391 24.185C157.451 24.3916 157.521 24.5616 157.601 24.695C157.688 24.8283 157.758 24.9216 157.811 24.975H155.651C155.611 24.935 155.551 24.8516 155.471 24.725C155.398 24.5916 155.331 24.4383 155.271 24.265C155.211 24.0983 155.165 23.9083 155.131 23.695C155.105 23.475 155.091 23.2383 155.091 22.985L155.491 23.265C155.291 23.6516 154.988 23.9883 154.581 24.275C154.181 24.5616 153.698 24.785 153.131 24.945C152.571 25.105 151.948 25.185 151.261 25.185ZM151.711 23.385C152.331 23.385 152.895 23.2883 153.401 23.095C153.915 22.895 154.325 22.595 154.631 22.195C154.938 21.7883 155.091 21.2783 155.091 20.665V18.905L155.601 19.575C155.175 19.7416 154.651 19.8783 154.031 19.985C153.418 20.085 152.785 20.1683 152.131 20.235C151.231 20.315 150.555 20.4716 150.101 20.705C149.648 20.9316 149.421 21.3116 149.421 21.845C149.421 22.3583 149.608 22.745 149.981 23.005C150.361 23.2583 150.938 23.385 151.711 23.385Z" fill="black"/>
<path d="M167.446 24.975V20.075C167.446 19.7883 167.446 19.545 167.446 19.345C167.446 19.145 167.446 18.9583 167.446 18.785C167.446 18.265 167.366 17.8083 167.206 17.415C167.046 17.015 166.783 16.705 166.416 16.485C166.049 16.2583 165.559 16.145 164.946 16.145C164.406 16.145 163.916 16.2783 163.476 16.545C163.043 16.8116 162.696 17.175 162.436 17.635C162.183 18.0883 162.056 18.605 162.056 19.185L161.126 18.725C161.126 17.865 161.329 17.095 161.736 16.415C162.143 15.7283 162.686 15.185 163.366 14.785C164.053 14.385 164.803 14.185 165.616 14.185C166.456 14.185 167.173 14.3483 167.766 14.675C168.366 14.995 168.823 15.455 169.136 16.055C169.456 16.6483 169.616 17.3583 169.616 18.185C169.616 18.4916 169.616 18.8316 169.616 19.205C169.616 19.5783 169.616 19.9383 169.616 20.285V24.975H167.446ZM159.886 24.975V14.355H162.056V24.975H159.886Z" fill="black"/>
<path d="M176.747 25.185C175.874 25.185 175.07 24.975 174.337 24.555C173.604 24.1283 173.017 23.5016 172.577 22.675C172.137 21.8483 171.917 20.8383 171.917 19.645C171.917 18.4783 172.14 17.4883 172.587 16.675C173.034 15.8616 173.624 15.245 174.357 14.825C175.09 14.3983 175.887 14.185 176.747 14.185C177.574 14.185 178.34 14.385 179.047 14.785C179.76 15.185 180.334 15.7416 180.767 16.455C181.2 17.1616 181.417 17.9783 181.417 18.905C181.417 18.9316 181.417 18.9583 181.417 18.985C181.417 19.005 181.417 19.025 181.417 19.045L180.157 19.085C180.157 19.065 180.157 19.045 180.157 19.025C180.157 18.9983 180.157 18.975 180.157 18.955C180.157 18.4016 180.017 17.9116 179.737 17.485C179.457 17.0516 179.087 16.7116 178.627 16.465C178.174 16.2116 177.69 16.085 177.177 16.085C176.317 16.085 175.597 16.375 175.017 16.955C174.437 17.5283 174.147 18.425 174.147 19.645C174.147 20.8583 174.437 21.7583 175.017 22.345C175.604 22.925 176.324 23.215 177.177 23.215C177.71 23.215 178.204 23.0883 178.657 22.835C179.11 22.575 179.474 22.2216 179.747 21.775C180.02 21.3283 180.157 20.8183 180.157 20.245L181.417 20.295C181.417 21.215 181.207 22.045 180.787 22.785C180.374 23.525 179.814 24.1116 179.107 24.545C178.407 24.9716 177.62 25.185 176.747 25.185ZM180.157 24.975V9.34497H182.337V24.975H180.157Z" fill="black"/>
<path d="M185.12 24.975V14.355H187.29V17.745L186.71 17.485C186.757 17.0516 186.867 16.6383 187.04 16.245C187.214 15.8516 187.444 15.5016 187.73 15.195C188.024 14.8816 188.384 14.635 188.81 14.455C189.237 14.275 189.73 14.185 190.29 14.185C190.717 14.185 191.06 14.2183 191.32 14.285C191.587 14.3516 191.75 14.405 191.81 14.445L191.35 16.485C191.284 16.4383 191.147 16.3783 190.94 16.305C190.74 16.2316 190.46 16.195 190.1 16.195C189.554 16.195 189.1 16.2916 188.74 16.485C188.38 16.6783 188.094 16.935 187.88 17.255C187.667 17.575 187.514 17.925 187.42 18.305C187.334 18.6783 187.29 19.055 187.29 19.435V24.975H185.12Z" fill="black"/>
<path d="M194.133 20.425V18.735H201.953L201.653 19.235C201.653 19.195 201.653 19.155 201.653 19.115C201.653 19.0683 201.653 19.0283 201.653 18.995C201.653 18.455 201.536 17.9583 201.303 17.505C201.069 17.045 200.719 16.6783 200.253 16.405C199.793 16.125 199.216 15.985 198.523 15.985C197.829 15.985 197.219 16.135 196.693 16.435C196.173 16.7283 195.766 17.1483 195.473 17.695C195.186 18.235 195.043 18.885 195.043 19.645C195.043 20.4183 195.183 21.085 195.463 21.645C195.743 22.1983 196.146 22.625 196.673 22.925C197.199 23.225 197.829 23.375 198.563 23.375C199.076 23.375 199.519 23.325 199.893 23.225C200.273 23.1183 200.583 22.9783 200.823 22.805C201.069 22.6316 201.256 22.445 201.383 22.245C201.509 22.0383 201.583 21.835 201.603 21.635H203.763C203.723 22.0683 203.579 22.4983 203.333 22.925C203.093 23.345 202.749 23.7283 202.303 24.075C201.863 24.415 201.323 24.6883 200.683 24.895C200.049 25.095 199.319 25.195 198.493 25.195C197.386 25.195 196.416 24.9616 195.583 24.495C194.749 24.0283 194.099 23.3816 193.633 22.555C193.166 21.7216 192.933 20.7683 192.933 19.695C192.933 18.6016 193.169 17.6416 193.643 16.815C194.116 15.9883 194.773 15.345 195.613 14.885C196.453 14.4183 197.416 14.185 198.503 14.185C199.609 14.185 200.566 14.4183 201.373 14.885C202.186 15.3516 202.813 15.995 203.253 16.815C203.693 17.635 203.913 18.5783 203.913 19.645C203.913 19.7716 203.909 19.9183 203.903 20.085C203.896 20.2516 203.886 20.365 203.873 20.425H194.133Z" fill="black"/>
<path d="M216.931 25.185C215.805 25.185 214.781 24.8883 213.861 24.295C212.948 23.7016 212.218 22.8416 211.671 21.715C211.131 20.5883 210.861 19.225 210.861 17.625C210.861 16.0183 211.138 14.6516 211.691 13.525C212.251 12.3983 213.005 11.535 213.951 10.935C214.905 10.335 215.971 10.035 217.151 10.035C218.118 10.035 218.935 10.1983 219.601 10.525C220.275 10.8516 220.821 11.2716 221.241 11.785C221.668 12.2983 221.978 12.8416 222.171 13.415C222.365 13.9816 222.461 14.515 222.461 15.015C222.461 15.035 222.461 15.055 222.461 15.075C222.461 15.095 222.461 15.115 222.461 15.135H220.351C220.351 15.115 220.351 15.095 220.351 15.075C220.351 15.055 220.351 15.035 220.351 15.015C220.351 14.6416 220.285 14.2716 220.151 13.905C220.025 13.5316 219.828 13.195 219.561 12.895C219.301 12.595 218.968 12.355 218.561 12.175C218.161 11.995 217.691 11.905 217.151 11.905C216.418 11.905 215.741 12.1083 215.121 12.515C214.501 12.915 214.001 13.5383 213.621 14.385C213.241 15.225 213.051 16.305 213.051 17.625C213.051 18.6316 213.155 19.4983 213.361 20.225C213.575 20.945 213.865 21.535 214.231 21.995C214.598 22.4483 215.021 22.785 215.501 23.005C215.981 23.225 216.495 23.335 217.041 23.335C217.775 23.335 218.378 23.2116 218.851 22.965C219.331 22.7116 219.701 22.3983 219.961 22.025C220.228 21.6516 220.398 21.2816 220.471 20.915V19.565H217.091V17.865H222.421V24.975H221.031L220.871 23.335C220.818 23.4483 220.708 23.605 220.541 23.805C220.375 24.005 220.135 24.2116 219.821 24.425C219.515 24.6383 219.121 24.8183 218.641 24.965C218.168 25.1116 217.598 25.185 216.931 25.185Z" fill="black"/>
<path d="M228.918 25.185C228.118 25.185 227.414 25.0583 226.808 24.805C226.208 24.5516 225.741 24.1883 225.408 23.715C225.074 23.2416 224.908 22.6716 224.908 22.005C224.908 21.2916 225.094 20.7016 225.468 20.235C225.848 19.7683 226.368 19.4083 227.028 19.155C227.694 18.895 228.451 18.725 229.298 18.645C230.558 18.5183 231.444 18.395 231.958 18.275C232.478 18.155 232.738 17.9583 232.738 17.685C232.738 17.6783 232.738 17.6716 232.738 17.665C232.738 17.125 232.508 16.715 232.048 16.435C231.588 16.155 230.931 16.015 230.078 16.015C229.178 16.015 228.481 16.175 227.988 16.495C227.501 16.8083 227.258 17.3083 227.258 17.995H225.128C225.128 17.1816 225.338 16.4916 225.758 15.925C226.184 15.3583 226.771 14.9283 227.518 14.635C228.264 14.335 229.121 14.185 230.088 14.185C230.974 14.185 231.781 14.3216 232.508 14.595C233.241 14.8616 233.824 15.2616 234.258 15.795C234.691 16.3283 234.908 16.9916 234.908 17.785C234.908 17.925 234.908 18.065 234.908 18.205C234.908 18.3383 234.908 18.475 234.908 18.615V22.855C234.908 23.1016 234.918 23.3416 234.938 23.575C234.958 23.8016 234.994 24.005 235.048 24.185C235.108 24.3916 235.178 24.5616 235.258 24.695C235.344 24.8283 235.414 24.9216 235.468 24.975H233.308C233.268 24.935 233.208 24.8516 233.128 24.725C233.054 24.5916 232.988 24.4383 232.928 24.265C232.868 24.0983 232.821 23.9083 232.788 23.695C232.761 23.475 232.748 23.2383 232.748 22.985L233.148 23.265C232.948 23.6516 232.644 23.9883 232.238 24.275C231.838 24.5616 231.354 24.785 230.788 24.945C230.228 25.105 229.604 25.185 228.918 25.185ZM229.368 23.385C229.988 23.385 230.551 23.2883 231.058 23.095C231.571 22.895 231.981 22.595 232.288 22.195C232.594 21.7883 232.748 21.2783 232.748 20.665V18.905L233.258 19.575C232.831 19.7416 232.308 19.8783 231.688 19.985C231.074 20.085 230.441 20.1683 229.788 20.235C228.888 20.315 228.211 20.4716 227.758 20.705C227.304 20.9316 227.078 21.3116 227.078 21.845C227.078 22.3583 227.264 22.745 227.638 23.005C228.018 23.2583 228.594 23.385 229.368 23.385Z" fill="black"/>
<path d="M237.542 24.975V14.355H239.712V17.745L239.132 17.485C239.179 17.0516 239.289 16.6383 239.462 16.245C239.636 15.8516 239.866 15.5016 240.152 15.195C240.446 14.8816 240.806 14.635 241.232 14.455C241.659 14.275 242.152 14.185 242.712 14.185C243.139 14.185 243.482 14.2183 243.742 14.285C244.009 14.3516 244.172 14.405 244.232 14.445L243.772 16.485C243.706 16.4383 243.569 16.3783 243.362 16.305C243.162 16.2316 242.882 16.195 242.522 16.195C241.976 16.195 241.522 16.2916 241.162 16.485C240.802 16.6783 240.516 16.935 240.302 17.255C240.089 17.575 239.936 17.925 239.842 18.305C239.756 18.6783 239.712 19.055 239.712 19.435V24.975H237.542Z" fill="black"/>
<path d="M250.935 25.185C249.868 25.185 248.911 24.9616 248.065 24.515C247.225 24.0616 246.561 23.4183 246.074 22.585C245.594 21.7516 245.354 20.7716 245.354 19.645C245.354 18.5183 245.594 17.5483 246.074 16.735C246.561 15.915 247.225 15.285 248.065 14.845C248.911 14.405 249.868 14.185 250.935 14.185C251.741 14.185 252.458 14.3083 253.085 14.555C253.711 14.795 254.241 15.115 254.674 15.515C255.108 15.915 255.438 16.355 255.664 16.835C255.891 17.315 256.005 17.795 256.005 18.275C256.005 18.2816 256.005 18.2916 256.005 18.305C256.005 18.3183 256.005 18.3316 256.005 18.345H253.854C253.854 18.3116 253.851 18.275 253.845 18.235C253.838 18.1883 253.831 18.145 253.824 18.105C253.771 17.7116 253.618 17.3616 253.365 17.055C253.111 16.7483 252.778 16.505 252.365 16.325C251.951 16.145 251.468 16.055 250.914 16.055C250.308 16.055 249.748 16.1883 249.234 16.455C248.728 16.715 248.321 17.1116 248.014 17.645C247.708 18.1783 247.555 18.845 247.555 19.645C247.555 20.445 247.705 21.1183 248.005 21.665C248.311 22.205 248.718 22.615 249.224 22.895C249.738 23.175 250.301 23.315 250.914 23.315C251.574 23.315 252.115 23.215 252.535 23.015C252.955 22.8083 253.271 22.535 253.484 22.195C253.698 21.8483 253.821 21.475 253.854 21.075H256.005C256.005 21.555 255.894 22.0416 255.674 22.535C255.454 23.0216 255.131 23.465 254.704 23.865C254.278 24.265 253.748 24.585 253.115 24.825C252.488 25.065 251.761 25.185 250.935 25.185Z" fill="black"/>
<path d="M258.432 24.975V14.355H260.572V24.975H258.432ZM259.512 12.155C259.138 12.155 258.815 12.055 258.542 11.855C258.275 11.6483 258.142 11.365 258.142 11.005C258.142 10.6516 258.275 10.375 258.542 10.175C258.815 9.9683 259.138 9.86497 259.512 9.86497C259.878 9.86497 260.195 9.9683 260.462 10.175C260.735 10.375 260.872 10.6516 260.872 11.005C260.872 11.365 260.735 11.6483 260.462 11.855C260.195 12.055 259.878 12.155 259.512 12.155Z" fill="black"/>
<path d="M267.14 25.185C266.34 25.185 265.637 25.0583 265.03 24.805C264.43 24.5516 263.964 24.1883 263.63 23.715C263.297 23.2416 263.13 22.6716 263.13 22.005C263.13 21.2916 263.317 20.7016 263.69 20.235C264.07 19.7683 264.59 19.4083 265.25 19.155C265.917 18.895 266.674 18.725 267.52 18.645C268.78 18.5183 269.667 18.395 270.18 18.275C270.7 18.155 270.96 17.9583 270.96 17.685C270.96 17.6783 270.96 17.6716 270.96 17.665C270.96 17.125 270.73 16.715 270.27 16.435C269.81 16.155 269.154 16.015 268.3 16.015C267.4 16.015 266.704 16.175 266.21 16.495C265.724 16.8083 265.48 17.3083 265.48 17.995H263.35C263.35 17.1816 263.56 16.4916 263.98 15.925C264.407 15.3583 264.994 14.9283 265.74 14.635C266.487 14.335 267.344 14.185 268.31 14.185C269.197 14.185 270.004 14.3216 270.73 14.595C271.464 14.8616 272.047 15.2616 272.48 15.795C272.914 16.3283 273.13 16.9916 273.13 17.785C273.13 17.925 273.13 18.065 273.13 18.205C273.13 18.3383 273.13 18.475 273.13 18.615V22.855C273.13 23.1016 273.14 23.3416 273.16 23.575C273.18 23.8016 273.217 24.005 273.27 24.185C273.33 24.3916 273.4 24.5616 273.48 24.695C273.567 24.8283 273.637 24.9216 273.69 24.975H271.53C271.49 24.935 271.43 24.8516 271.35 24.725C271.277 24.5916 271.21 24.4383 271.15 24.265C271.09 24.0983 271.044 23.9083 271.01 23.695C270.984 23.475 270.97 23.2383 270.97 22.985L271.37 23.265C271.17 23.6516 270.867 23.9883 270.46 24.275C270.06 24.5616 269.577 24.785 269.01 24.945C268.45 25.105 267.827 25.185 267.14 25.185ZM267.59 23.385C268.21 23.385 268.774 23.2883 269.28 23.095C269.794 22.895 270.204 22.595 270.51 22.195C270.817 21.7883 270.97 21.2783 270.97 20.665V18.905L271.48 19.575C271.054 19.7416 270.53 19.8783 269.91 19.985C269.297 20.085 268.664 20.1683 268.01 20.235C267.11 20.315 266.434 20.4716 265.98 20.705C265.527 20.9316 265.3 21.3116 265.3 21.845C265.3 22.3583 265.487 22.745 265.86 23.005C266.24 23.2583 266.817 23.385 267.59 23.385Z" fill="black"/>
</svg>
