<svg width="100" height="100" viewBox="0 0 100 100" fill="none" xmlns="http://www.w3.org/2000/svg">
<path d="M70.5938 60.6562L81.7813 71.875H61.0937L47.4375 50L61.0937 28.125H81.7813L70.5938 39.3438L75 43.75L93.75 25L75 6.25L70.5938 10.6563L81.7813 21.875H61.0937C60.0369 21.8782 58.9981 22.1493 58.0745 22.663C57.1509 23.1767 56.3726 23.9163 55.8125 24.8125L43.75 44.0937L31.6875 24.8125C31.1274 23.9163 30.3491 23.1767 29.4255 22.663C28.5019 22.1493 27.4631 21.8782 26.4062 21.875H6.25V28.125H26.4062L40.0625 50L26.4062 71.875H6.25V78.125H26.4062C27.4631 78.1218 28.5019 77.8507 29.4255 77.337C30.3491 76.8233 31.1274 76.0837 31.6875 75.1875L43.75 55.9062L55.8125 75.1875C56.3726 76.0837 57.1509 76.8233 58.0745 77.337C58.9981 77.8507 60.0369 78.1218 61.0937 78.125H81.7813L70.5938 89.3438L75 93.75L93.75 75L75 56.25L70.5938 60.6562Z" fill="white"/>
</svg>
